#define sea_width 572
#define sea_height 58
static char sea_bits[] = {
 0x00,0x00,0x00,0x00,0x00,0x00,0x00,0x00,0x00,0x00,0x00,0x00,0x00,0x00,0x00,
 0x00,0x00,0x00,0x00,0x00,0x00,0x00,0x00,0x00,0x00,0x00,0x00,0x00,0x00,0x00,
 0x00,0x00,0x00,0x00,0x00,0x00,0x00,0x00,0x00,0x00,0x00,0x00,0x00,0x00,0x00,
 0x00,0x00,0x00,0x00,0x00,0x00,0x00,0x00,0x00,0x00,0x00,0x00,0x00,0x00,0x00,
 0x00,0x00,0x00,0x00,0x00,0x00,0x00,0x00,0x00,0x00,0x00,0x00,0x00,0x00,0x00,
 0x00,0x00,0x00,0x00,0x00,0x00,0x00,0x00,0x00,0x00,0x00,0x00,0x00,0x00,0x00,
 0x00,0x00,0x00,0x00,0x00,0x00,0x00,0x00,0x00,0x00,0x00,0x00,0x00,0x00,0x00,
 0x00,0x00,0x00,0x00,0x00,0x00,0x00,0x00,0x00,0x00,0x00,0x00,0x00,0x00,0x00,
 0x00,0x00,0x00,0x00,0x00,0x00,0x00,0x00,0x00,0x00,0x00,0x00,0x00,0x00,0x00,
 0x00,0x00,0x00,0x00,0x00,0x00,0x00,0x00,0x00,0x00,0x00,0x00,0x00,0x00,0x00,
 0x00,0x00,0x00,0x00,0x00,0x00,0x00,0x00,0x00,0x00,0x00,0x00,0x00,0x00,0x00,
 0x00,0x00,0x00,0x00,0x00,0x00,0x00,0x00,0x00,0x00,0x00,0x00,0x00,0x00,0x00,
 0x00,0x00,0x00,0x00,0x00,0x00,0x00,0x00,0x00,0x00,0x00,0x00,0x00,0x00,0x00,
 0x00,0x00,0x00,0x00,0x00,0x00,0x00,0x00,0x00,0x00,0x00,0x00,0x00,0x00,0x00,
 0x00,0x00,0x00,0x00,0x00,0x00,0x00,0x00,0x00,0x00,0x00,0x00,0x00,0x00,0x00,
 0x00,0x00,0x00,0x00,0x00,0x00,0x00,0x00,0x00,0x00,0x00,0x00,0x00,0x00,0x00,
 0x00,0x00,0x00,0x00,0x00,0x00,0x00,0x00,0x00,0x00,0x00,0x00,0x00,0x00,0x00,
 0x00,0x00,0x00,0x00,0x00,0x00,0x00,0x00,0x00,0x00,0x00,0x00,0x00,0x00,0x00,
 0x00,0x00,0x00,0x00,0x00,0x00,0x00,0x00,0x00,0x00,0x00,0x00,0x00,0x00,0x00,
 0x00,0x00,0x00,0x00,0x00,0x00,0x00,0x00,0x00,0x00,0x00,0x00,0x00,0x00,0x00,
 0x00,0x00,0x00,0x00,0x00,0x00,0x00,0x00,0x00,0x00,0x00,0x00,0x00,0x00,0x00,
 0x00,0x00,0x00,0x00,0x00,0x00,0x00,0x00,0x00,0x00,0x00,0x00,0x00,0x00,0x00,
 0x00,0x00,0x00,0x00,0x00,0x00,0x00,0x00,0x00,0x00,0x00,0x00,0x00,0x00,0x00,
 0x00,0x00,0x00,0x00,0x00,0x00,0x00,0x00,0x00,0x00,0x00,0x00,0x00,0x00,0x00,
 0x00,0x00,0x00,0x00,0x00,0x00,0x00,0x00,0x00,0x00,0x00,0x00,0x00,0x00,0x00,
 0x00,0x00,0x00,0x00,0x00,0x00,0x00,0x00,0x00,0x00,0x00,0x00,0x00,0x00,0x00,
 0x00,0x00,0x00,0x00,0x00,0x00,0x00,0x00,0x00,0x00,0x00,0x00,0x00,0x00,0x00,
 0x00,0x00,0x00,0x00,0x00,0x00,0x00,0x00,0x00,0x00,0x00,0x00,0x00,0x00,0x00,
 0x00,0x00,0x00,0x00,0x00,0x00,0x00,0x00,0x00,0x00,0x00,0x00,0x00,0x00,0x00,
 0x00,0x00,0x00,0xfe,0x0f,0x00,0x00,0x00,0x00,0xc0,0x1f,0x00,0x00,0x00,0x00,
 0xc0,0x3f,0x00,0x00,0xe0,0xbf,0x1f,0x00,0x00,0x00,0x00,0x00,0xf8,0x03,0x00,
 0x00,0x00,0x00,0x00,0x00,0x00,0x00,0x00,0x00,0x00,0x00,0x00,0x00,0x00,0x00,
 0x00,0x00,0x00,0x00,0x00,0x00,0x00,0x00,0x00,0x00,0x00,0xc0,0x3f,0x00,0xf8,
 0x01,0x00,0x7f,0x00,0x00,0x00,0x00,0x00,0x00,0x00,0x00,0x00,0x00,0x00,0x00,
 0xc3,0x0e,0x00,0x00,0x00,0x00,0x40,0x1c,0x00,0x00,0x00,0x00,0x40,0x38,0x00,
 0x00,0x20,0xb8,0x1c,0x00,0x00,0x00,0x00,0x00,0x88,0x03,0x00,0x00,0x00,0x00,
 0x00,0x00,0x00,0x00,0x00,0x00,0x00,0x00,0x00,0x00,0x00,0x00,0x00,0x00,0x00,
 0x00,0x00,0x00,0x00,0x00,0x00,0x00,0x00,0x40,0x38,0x00,0xcc,0x01,0x00,0x71,
 0x00,0x00,0x00,0x00,0x00,0x00,0x00,0x00,0x00,0x00,0x00,0x80,0x31,0x0e,0x00,
 0x00,0x00,0x00,0x40,0x1c,0x00,0x00,0x00,0x00,0xc0,0x38,0x00,0x00,0x60,0xb8,
 0x1c,0x00,0x00,0x00,0x00,0x00,0x88,0x03,0x00,0x00,0x00,0x00,0x00,0x00,0x00,
 0x00,0x00,0x00,0x00,0x00,0x00,0x00,0x80,0x1f,0x00,0x00,0x00,0x3f,0x00,0x00,
 0x00,0x00,0x00,0x00,0x00,0xc0,0x38,0x00,0xc6,0x01,0x00,0x71,0x00,0x00,0x00,
 0x00,0x00,0x00,0x00,0x00,0x00,0x00,0x00,0x80,0x78,0x0e,0x00,0x00,0x00,0x00,
 0x40,0x1c,0x00,0x00,0x00,0x00,0xc0,0x38,0x00,0x00,0x60,0xbc,0x1c,0x00,0x00,
 0x00,0x00,0x00,0x88,0x03,0x00,0x00,0x00,0x00,0x00,0x00,0x00,0x00,0x00,0x00,
 0x00,0x00,0x00,0x00,0xc0,0x1c,0x00,0x00,0x80,0x39,0x00,0x00,0x00,0x00,0x00,
 0x00,0x00,0xc0,0x38,0x00,0xe3,0x01,0x00,0x71,0x00,0x00,0x00,0x00,0x00,0x00,
 0x00,0x00,0x00,0x00,0x00,0x80,0x78,0x0f,0x00,0x00,0x00,0x00,0xc0,0x1f,0x00,
 0x00,0x00,0x00,0x40,0x3c,0x00,0x00,0x60,0xbc,0x1c,0x00,0x00,0x00,0x00,0x00,
 0xf8,0x03,0x00,0x00,0x00,0x00,0x00,0x00,0x00,0x00,0x00,0x00,0x00,0x00,0x00,
 0x00,0x60,0x1e,0x00,0x00,0xc0,0x3c,0x00,0x00,0x00,0x00,0x00,0x00,0x00,0xc0,
 0x38,0x00,0xf9,0x01,0x00,0x7f,0x00,0x00,0x00,0x00,0x00,0x00,0x00,0x00,0x00,
 0x00,0x00,0x80,0x78,0x0f,0xfe,0xfd,0xff,0xff,0xff,0x1f,0xff,0xe0,0x1f,0x00,
 0x7c,0x3c,0xfc,0x03,0x40,0xbc,0x1c,0xfc,0xfb,0xff,0xfd,0xff,0xff,0xff,0x3f,
 0xfe,0xf1,0xff,0xf3,0xff,0x03,0xff,0xfe,0xff,0x1f,0xfc,0xfb,0xff,0x39,0x3e,
 0x00,0xff,0x77,0xfc,0xff,0xff,0xc1,0x3f,0xf8,0xff,0xff,0x43,0xfc,0x03,0xff,
 0xff,0xff,0x7f,0xfc,0xff,0xff,0x0f,0xfe,0x01,0x00,0x00,0x00,0x00,0x00,0x80,
 0xf0,0x0f,0xc3,0x87,0x31,0x9c,0x07,0x9e,0xe1,0x31,0x3c,0x00,0x46,0x3c,0x86,
 0x07,0x60,0x9c,0x1c,0x86,0x0f,0xc6,0x87,0xf3,0xc0,0xc3,0x38,0xc3,0x13,0x8c,
 0x17,0x8c,0x87,0xe1,0x83,0x71,0x1c,0x86,0x0f,0xc6,0x0b,0x38,0x80,0x11,0x17,
 0x30,0x18,0xc7,0x61,0x78,0x0c,0x3d,0x88,0x47,0x8c,0x87,0xe1,0xc3,0x18,0x78,
 0x46,0x3c,0x38,0x0e,0xc3,0x03,0x00,0x00,0x00,0x00,0x00,0x80,0xe1,0x87,0x99,
 0x8f,0x70,0x98,0x1f,0xcf,0xcc,0x99,0x39,0x00,0x33,0x1c,0x33,0x07,0x20,0x9e,
 0x1c,0x33,0x1f,0x82,0x0f,0xf3,0xe3,0x47,0xb8,0x99,0x37,0x04,0x37,0x04,0xc7,
 0xcc,0xc7,0x30,0x1c,0x33,0x1f,0x82,0x1b,0x3f,0xc0,0x08,0x37,0x7e,0x0c,0xc3,
 0x31,0xf3,0xc4,0x7c,0x00,0x47,0x04,0xc7,0xcc,0x47,0x78,0x3c,0x33,0xfe,0x18,
 0x8f,0x99,0x03,0x00,0x00,0x00,0x00,0x00,0x80,0xc1,0xc7,0x9c,0x8f,0xf0,0x98,
 0x1f,0x6f,0xc6,0xcd,0x39,0x80,0x31,0x9e,0x39,0x07,0x20,0x9e,0x9f,0x39,0x1f,
 0x8c,0x1f,0xf3,0xe3,0x47,0xf8,0x1c,0x37,0x18,0x37,0x18,0x67,0xce,0x47,0x51,
 0x9c,0x39,0x1f,0x8c,0x1b,0x3f,0x60,0x8c,0x37,0x7e,0x14,0xc5,0x99,0xe3,0xc4,
 0x7e,0x18,0x67,0x18,0x67,0xce,0x47,0x78,0xbc,0x31,0xfe,0x18,0xcf,0x9c,0x03,
 0x00,0x00,0x00,0x00,0x00,0x80,0x83,0x47,0x9c,0x0f,0xff,0xb8,0x1f,0x2f,0xc6,
 0xc5,0x39,0x80,0x38,0x9e,0x38,0x07,0x30,0x9e,0x9f,0x38,0x1f,0xc6,0x1f,0xf7,
 0xe3,0x87,0x7f,0x1c,0x37,0x8c,0x37,0x8c,0x27,0xce,0x87,0x61,0x9c,0x38,0x1f,
 0xc6,0x1b,0x3f,0x20,0x8e,0x37,0x7e,0x18,0xc6,0x89,0xe3,0xc4,0x7e,0x1c,0x27,
 0x8c,0x27,0xce,0x87,0x7f,0xbc,0x38,0x7e,0x1c,0x4f,0x9c,0x03,0x00,0x00,0x00,
 0x00,0x00,0x00,0x07,0x67,0xcc,0x8f,0xff,0xd8,0x0b,0x37,0xfe,0xc7,0x3c,0xc0,
 0x38,0xde,0x98,0x07,0x10,0x8e,0xdf,0x98,0x17,0xc7,0x1b,0x7b,0xe1,0xc6,0x7f,
 0x1c,0x27,0x8e,0x27,0x8e,0x37,0xe6,0xc7,0x71,0xdc,0x98,0x17,0xc7,0x1b,0x07,
 0x30,0x8e,0x37,0x6e,0x1c,0xc7,0x8d,0xe3,0x84,0x7f,0x1c,0x27,0x8c,0x37,0xe6,
 0xc7,0x3f,0xdc,0x38,0x4e,0x0c,0x67,0xcc,0x03,0x00,0x00,0x00,0x00,0x00,0xe0,
 0x0f,0x27,0xe6,0x87,0xff,0xe8,0x8b,0x17,0xff,0x63,0x3e,0x40,0x1c,0x4f,0xcc,
 0x07,0x10,0x0f,0x40,0xcc,0x1f,0xc7,0x13,0x7d,0xf1,0xc2,0x3f,0x1e,0x37,0x8e,
 0x37,0x8e,0x17,0xf3,0xc3,0x30,0x5e,0xcc,0x1f,0xc7,0x8b,0x07,0x10,0x8e,0x13,
 0x2f,0x0c,0xe3,0xc5,0xe3,0x8c,0x2f,0x1e,0x37,0x8e,0x17,0xf3,0xc3,0x3f,0x5e,
 0x1c,0x6f,0x8c,0x27,0xe6,0x03,0x00,0x00,0x00,0x00,0x00,0xa0,0x1f,0x27,0xf8,
 0xc7,0x87,0xe8,0x8b,0x17,0xff,0x83,0x3f,0x40,0x1c,0x5f,0xf0,0x07,0x10,0x0f,
 0x40,0xf0,0x0f,0xe3,0x11,0x7d,0xf1,0xe2,0x23,0x8e,0x17,0xc6,0x13,0xc6,0x13,
 0xfc,0xe3,0x38,0x7e,0xf0,0x0f,0xe3,0x89,0x07,0x10,0xcf,0x13,0x2f,0x8e,0xe3,
 0xc7,0xf1,0x0e,0x2f,0x8e,0x17,0xce,0x1f,0xfc,0xe3,0x23,0x5e,0x1c,0x2f,0x8e,
 0x2f,0xf8,0x03,0x00,0x00,0x00,0x00,0x00,0xb0,0x1f,0x27,0xfe,0xc5,0x83,0xf0,
 0x8d,0x1f,0xef,0xe2,0x1f,0x40,0x1c,0x5d,0xfc,0x03,0x18,0x1f,0x40,0xfc,0x8b,
 0xe3,0x13,0xbe,0xf1,0xe3,0x21,0x8e,0x17,0xc7,0x17,0xc7,0x17,0xff,0xe2,0x38,
 0x7a,0xfc,0x8b,0xe3,0x8b,0x0f,0x10,0xc7,0x17,0x3f,0x8e,0xa3,0xc7,0xf1,0x1a,
 0x27,0x8e,0x17,0xc7,0x1e,0xff,0xe2,0x31,0x7e,0x1c,0x2f,0x86,0x2e,0xfe,0x01,
 0x00,0x00,0x00,0x00,0x00,0x90,0x9f,0x27,0xde,0xc7,0x83,0xf8,0x84,0x1e,0xef,
 0xe2,0x1d,0x40,0x04,0x5d,0xbc,0x03,0x08,0x1d,0x40,0xbc,0x8b,0xa3,0x13,0x9f,
 0xd0,0xe3,0x21,0xce,0x17,0x47,0x17,0x47,0x17,0xef,0xe3,0x38,0x7a,0xbc,0x8b,
 0xa3,0x8f,0x0e,0x10,0x47,0x1f,0x3d,0x8e,0xa3,0xc7,0xf9,0x1b,0x37,0xc7,0x17,
 0x47,0x1f,0xef,0xe3,0x11,0x7a,0x0c,0x27,0x8a,0x2e,0xde,0x01,0x00,0x00,0x00,
 0x00,0x00,0x10,0x8f,0x67,0xee,0xe3,0x81,0xfc,0x04,0x3f,0xf6,0xe6,0x1e,0x40,
 0x00,0xde,0xdc,0x03,0x08,0x1e,0xc0,0xdc,0x8f,0xc3,0x93,0x9f,0xe0,0xf1,0x60,
 0xe6,0x1b,0x87,0x1f,0x87,0x37,0xf7,0x71,0x1c,0xfc,0xdc,0x8f,0xc3,0x07,0x0f,
 0x10,0x81,0x0f,0x1e,0xc7,0xc1,0xcf,0x7c,0x19,0x17,0xe3,0x1b,0x87,0x3f,0xf7,
 0xf1,0x10,0x7c,0x80,0x27,0x0c,0x6f,0xee,0x01,0x00,0x00,0x00,0x00,0x00,0xd0,
 0xe0,0xe7,0xf0,0xe3,0x81,0x7e,0x8c,0x7f,0xf8,0x0e,0x1f,0xc0,0x18,0xdf,0xe1,
 0x03,0x18,0x1f,0xc0,0xe1,0xc7,0xe3,0xd3,0x8f,0xf1,0xf1,0xe0,0xf0,0x8b,0xc7,
 0x8f,0xc7,0x77,0xf8,0x71,0x3c,0xfe,0xe1,0xc7,0xe3,0x8f,0x0f,0x30,0xc6,0x1f,
 0x1f,0xc7,0xe3,0x1f,0x7e,0xc5,0x17,0xf8,0x8b,0xc7,0x7f,0xf8,0xf1,0x30,0xfe,
 0x88,0x67,0x8e,0xef,0xf0,0x01,0x00,0x00,0x00,0x00,0x00,0xf0,0xff,0xe3,0xff,
 0xff,0x81,0x3f,0xfc,0xff,0xff,0xfe,0x1f,0xc0,0xff,0xdf,0xff,0x03,0xf8,0x1f,
 0xc0,0xff,0xff,0xff,0xf3,0x87,0xff,0xff,0xe0,0xff,0xf9,0xff,0xff,0xff,0xf7,
 0xff,0xff,0xff,0xff,0xff,0xff,0xff,0xff,0x0f,0xf0,0xff,0xff,0xff,0xff,0xff,
 0xff,0x3f,0xff,0x1f,0xff,0xf9,0xff,0xf7,0xff,0xff,0xf0,0xff,0x8f,0xe7,0xff,
 0xef,0xff,0x01,0x00,0x00,0x00,0x00,0x00,0xf0,0xff,0xc3,0xff,0xfe,0x80,0x1f,
 0xfc,0xe7,0x7f,0xfc,0x0f,0xc0,0xff,0x8f,0xff,0x01,0xf8,0x0f,0x80,0xff,0xfd,
 0xff,0xf1,0x83,0xff,0x7f,0xc0,0xff,0xf8,0xff,0xfb,0xff,0xe3,0x7f,0xff,0xff,
 0x9f,0xff,0xfd,0xff,0xfd,0x07,0xf0,0xff,0xfb,0xff,0xff,0xff,0xf9,0x1f,0xff,
 0x8f,0xff,0xf8,0xff,0xe3,0x7f,0x7f,0xf0,0xdf,0x8f,0xe3,0xff,0xc7,0xff,0x00,
 0x00,0x00,0x00,0x00,0x00,0xf0,0xff,0x80,0x7f,0xfe,0x80,0x0f,0xf8,0xc3,0x3f,
 0xf8,0x07,0x80,0xff,0x07,0xff,0x00,0xf0,0x07,0x00,0xff,0xfc,0xff,0xf0,0x01,
 0x7f,0x7f,0x80,0x7f,0xf8,0xff,0xf9,0xff,0xc1,0x3f,0xff,0xff,0x0f,0xff,0xfc,
 0xff,0xf8,0x03,0xe0,0xff,0xf1,0xf7,0xff,0xff,0xf0,0x0f,0xff,0x89,0x3f,0xf8,
 0xff,0xc1,0x3f,0x7f,0xe0,0x8f,0xc7,0xc3,0xff,0x83,0x7f,0x00,0x00,0x00,0x00,
 0x00,0x00,0x00,0x00,0x00,0x00,0x00,0x00,0x00,0x00,0x00,0x00,0x00,0x00,0x00,
 0x00,0x00,0x00,0x00,0x00,0x00,0x00,0x00,0x00,0x00,0x00,0x00,0x00,0x00,0x00,
 0x00,0x00,0x00,0x00,0x00,0x00,0x00,0x00,0x00,0x00,0x00,0x00,0x00,0x00,0x00,
 0x00,0x00,0x00,0x00,0x00,0x00,0x00,0x00,0x00,0x8e,0x0f,0x00,0x00,0x00,0x00,
 0x00,0x00,0x00,0xc7,0x07,0x00,0x00,0x00,0x00,0x00,0x00,0x00,0x00,0x00,0x00,
 0x00,0x00,0x00,0x00,0x00,0x00,0x00,0x00,0x00,0x00,0x00,0x00,0x00,0x00,0x00,
 0x00,0x00,0x00,0x00,0x00,0x00,0x00,0x00,0x00,0x00,0x00,0x00,0x00,0x00,0x00,
 0x00,0x00,0x00,0x00,0x00,0x00,0x00,0x00,0x00,0x00,0x00,0x00,0x00,0x00,0x00,
 0x00,0x00,0x00,0x00,0x00,0x00,0x02,0x0e,0x00,0x00,0x00,0x00,0x00,0x00,0x00,
 0x01,0x07,0x00,0x00,0x00,0x00,0x00,0x00,0x00,0x00,0x00,0x00,0x00,0x00,0x00,
 0x00,0x00,0x00,0x00,0x00,0x00,0x00,0x00,0x00,0x00,0x00,0x00,0x00,0x00,0x00,
 0x00,0x00,0x00,0x00,0x00,0x00,0x00,0x00,0x00,0x00,0x00,0x00,0x00,0x00,0x00,
 0x00,0x00,0x00,0x00,0x00,0x00,0x00,0x00,0x00,0x00,0x00,0x00,0x00,0x00,0x00,
 0x00,0x00,0x00,0xfe,0x0f,0x00,0x00,0x00,0x00,0x00,0x00,0x00,0xff,0x07,0x00,
 0x00,0x00,0x00,0x00,0x00,0x00,0x00,0x00,0x00,0x00,0x00,0x00,0x00,0x00,0x00,
 0x00,0x00,0x00,0x00,0x00,0x00,0x00,0x00,0x00,0x00,0x00,0x00,0x00,0x00,0x00,
 0x00,0x00,0x00,0x00,0x00,0x00,0x00,0x00,0x00,0x00,0x00,0x00,0x00,0x00,0x00,
 0x00,0x00,0x00,0x00,0x00,0x00,0x00,0x00,0x00,0x00,0x00,0x00,0x00,0x00,0x00,
 0xfe,0x0f,0x00,0x00,0x00,0x00,0x00,0x00,0x00,0xff,0x07,0x00,0x00,0x00,0x00,
 0x00,0x00,0x00,0x00,0x00,0x00,0x00,0x00,0x00,0x00,0x00,0x00,0x00,0x00,0x00,
 0x00,0x00,0x00,0x00,0x00,0x00,0x00,0x00,0x00,0x00,0x00,0x00,0x00,0x00,0x00,
 0x00,0x00,0x00,0x00,0x00,0x00,0x00,0x00,0x00,0x00,0x00,0x00,0x00,0x00,0x00,
 0x00,0x00,0x00,0x00,0x00,0x00,0x00,0x00,0x00,0x00,0x00,0x00,0xfe,0x0f,0x00,
 0x00,0x00,0x00,0x00,0x00,0x00,0xff,0x07,0x00,0x00,0x00,0x00,0x00,0x00,0x00,
 0x00,0x00,0x00,0x00,0x00,0x00,0x00,0x00,0x00,0x00,0x00,0x00,0x00,0x00,0x00,
 0x00,0x00,0x00,0x00,0x00,0x00,0x00,0x00,0x00,0x00,0x00,0x00,0x00,0x00,0x00,
 0x00,0x00,0x00,0x00,0x00,0x00,0x00,0x00,0x00,0x00,0x00,0x00,0x00,0x00,0x00,
 0x00,0x00,0x00,0x00,0x00,0x00,0x00,0x00,0x00,0x00,0x00,0x00,0x00,0x00,0x00,
 0x00,0x00,0x00,0x00,0x00,0x00,0x00,0x00,0x00,0x00,0x00,0x00,0x00,0x00,0x00,
 0x00,0x00,0x00,0x00,0x00,0x00,0x00,0x00,0x00,0x00,0x00,0x00,0x00,0x00,0x00,
 0x00,0x00,0x00,0x00,0x00,0x00,0x00,0x00,0x00,0x00,0x00,0x00,0x00,0x00,0x00,
 0x00,0x00,0x00,0x00,0x00,0x00,0x00,0x00,0x00,0x00,0x00,0x00,0x00,0x00,0x00,
 0x00,0x00,0x00,0x00,0x00,0x00,0x00,0x00,0x00,0x00,0x00,0x00,0x00,0x00,0x00,
 0x00,0x00,0x00,0x00,0x00,0x00,0x00,0x00,0x00,0x00,0x00,0x00,0x00,0x00,0x00,
 0x00,0x00,0x00,0x00,0x00,0x00,0x00,0x00,0x00,0x00,0x00,0x00,0x00,0x00,0x00,
 0x00,0x00,0x00,0x00,0x00,0x00,0x00,0x00,0x00,0x00,0x00,0xfc,0xff,0x03,0x00,
 0x00,0x00,0xfc,0x01,0x00,0x00,0x00,0x00,0x00,0x00,0x00,0x00,0x00,0x00,0x00,
 0x00,0x00,0x00,0x00,0x00,0x00,0xfc,0x3f,0x00,0x00,0x00,0x00,0x00,0x00,0xf8,
 0x07,0x00,0x00,0x00,0x00,0x00,0x00,0x00,0x00,0x00,0x00,0x00,0x00,0x00,0x00,
 0x00,0x00,0x00,0x00,0x00,0x00,0x00,0x00,0x00,0x00,0x00,0x00,0x00,0x00,0x00,
 0x00,0x00,0x00,0x00,0x00,0x00,0x00,0x00,0x04,0x80,0x03,0x00,0x00,0x00,0xc4,
 0x01,0x00,0x00,0x00,0x00,0x00,0x00,0x00,0x00,0x00,0x00,0x00,0x00,0x00,0x00,
 0x00,0x00,0x00,0x07,0x3a,0x00,0x00,0x00,0x00,0x00,0x00,0x08,0x07,0x00,0x00,
 0x00,0x00,0x00,0x00,0x00,0x00,0x00,0x00,0x00,0x00,0x00,0x00,0x00,0x00,0x00,
 0x00,0x00,0x00,0x00,0x00,0x00,0x00,0x00,0x00,0x00,0x00,0x00,0x00,0x00,0x00,
 0x00,0x00,0x00,0x00,0x00,0x1c,0x8f,0x03,0x00,0x00,0x00,0xc4,0x01,0x00,0x00,
 0x00,0x00,0x00,0x00,0x00,0x00,0x00,0x00,0x00,0x00,0x00,0x00,0xc0,0x0f,0x80,
 0xe1,0x38,0x00,0x00,0x00,0x00,0x00,0x00,0x18,0x07,0x00,0x00,0x00,0x00,0x00,
 0x00,0x00,0x00,0x00,0x00,0x00,0x00,0x00,0x00,0x00,0x00,0x00,0x00,0x00,0x00,
 0x00,0x00,0x00,0x00,0x00,0x00,0x00,0x00,0x00,0x00,0x00,0x00,0x00,0x00,0x00,
 0x00,0x00,0x1c,0xdf,0x03,0x00,0x00,0x00,0xc4,0x01,0x00,0x00,0x00,0x00,0x00,
 0x00,0x00,0x00,0x00,0x00,0x00,0x00,0x00,0x00,0x60,0x0e,0xc0,0xf8,0x39,0x00,
 0x00,0x00,0x00,0x00,0x00,0x18,0x07,0x00,0x00,0x00,0x00,0x00,0x00,0x00,0x00,
 0x00,0x00,0x00,0x00,0x00,0x00,0x00,0x00,0x00,0x00,0x00,0x00,0x00,0x00,0x00,
 0x00,0x00,0x00,0x00,0x00,0x00,0x00,0x00,0x00,0x00,0x00,0x00,0x00,0x00,0x8c,
 0xdf,0x03,0x00,0x00,0x00,0xfc,0x01,0x00,0x00,0x00,0x00,0x00,0x00,0x00,0x00,
 0x00,0x00,0x00,0x00,0x00,0x00,0x30,0x0f,0x40,0xfc,0x3d,0x00,0x00,0x00,0x00,
 0x00,0x00,0x88,0x07,0x00,0x00,0x00,0x00,0x00,0x00,0x00,0x00,0x00,0x00,0x00,
 0x00,0x00,0x00,0x00,0x00,0x00,0x00,0x00,0x00,0x00,0x00,0x00,0x00,0x00,0x00,
 0x00,0x00,0x00,0x00,0x00,0x00,0x00,0x00,0x00,0x00,0x00,0x88,0xff,0xff,0xff,
 0xfe,0xff,0xff,0xff,0x1f,0xff,0xf8,0xff,0xf9,0xff,0x81,0x7f,0xff,0xff,0x0f,
 0xfe,0xfd,0xff,0x1c,0x1f,0x60,0xfc,0x3d,0xfe,0xef,0xff,0x07,0xff,0x87,0x8f,
 0xc7,0xff,0x01,0x00,0x00,0x00,0x00,0x00,0x00,0x00,0x00,0x00,0x00,0x00,0x00,
 0x00,0x00,0x00,0x00,0x00,0x00,0x00,0x00,0x00,0x00,0x00,0x00,0x00,0x00,0x00,
 0x00,0x00,0x00,0x00,0x00,0x00,0x00,0x00,0x88,0xf7,0x05,0xe3,0xc3,0x79,0xe0,
 0x61,0x9c,0xe1,0x09,0xc6,0x0b,0xc6,0xc3,0xf0,0xc1,0x38,0x0e,0xc3,0x07,0xe3,
 0x05,0x1c,0x20,0x3e,0x3f,0x23,0x2e,0x18,0x8f,0x11,0xc7,0x88,0x67,0xc4,0x01,
 0x00,0x00,0x00,0x00,0x00,0x00,0x00,0x00,0x00,0x00,0x00,0x00,0x00,0x00,0x00,
 0x00,0x00,0x00,0x00,0x00,0x00,0x00,0x00,0x00,0x00,0x00,0x00,0x00,0x00,0x00,
 0x00,0x00,0x00,0x00,0x00,0x8c,0xfb,0x0d,0xc1,0x87,0xf9,0xf1,0x23,0xdc,0xcc,
 0x1b,0x82,0x1b,0x82,0x63,0xe6,0x63,0x18,0x8e,0x99,0x0f,0xc1,0x8d,0x1f,0x30,
 0x1e,0x9f,0x11,0x6e,0x08,0xce,0x08,0x67,0x86,0x33,0xc2,0x01,0x00,0x00,0x00,
 0x00,0x00,0x00,0x00,0x00,0x00,0x00,0x00,0x00,0x00,0x00,0x00,0x00,0x00,0x00,
 0x00,0x00,0x00,0x00,0x00,0x00,0x00,0x00,0x00,0x00,0x00,0x00,0x00,0x00,0x00,
 0x00,0x00,0x04,0x78,0x0c,0xc6,0x8f,0xf9,0xf1,0x23,0x7c,0x8e,0x1b,0x8c,0x1b,
 0x8c,0x33,0xe7,0xa3,0x28,0xce,0x9c,0x0f,0xc6,0x8d,0x1f,0x10,0x1e,0xdf,0x18,
 0x6f,0x30,0x6e,0x8c,0x37,0xc6,0x1b,0xe3,0x01,0x00,0x00,0x00,0x00,0x00,0x00,
 0x00,0x00,0x00,0x00,0x00,0x00,0x00,0x00,0x00,0x00,0x00,0x00,0x00,0x00,0x00,
 0x00,0x00,0x00,0x00,0x00,0x00,0x00,0x00,0x00,0x00,0x00,0x00,0x00,0x00,0xc4,
 0x79,0x0c,0xe3,0x8f,0xfb,0xf1,0xc3,0x3f,0x8e,0x1b,0xc6,0x1b,0xc6,0x13,0xe7,
 0xc3,0x30,0x4e,0x9c,0x0f,0xe3,0x8d,0x1f,0x10,0x0f,0x40,0x1c,0x6f,0x18,0x2f,
 0x8e,0x17,0xc7,0x8b,0xe3,0x01,0x00,0x00,0x00,0x00,0x00,0x00,0x00,0x00,0x00,
 0x00,0x00,0x00,0x00,0x00,0x00,0x00,0x00,0x00,0x00,0x00,0x00,0x00,0x00,0x00,
 0x00,0x00,0x00,0x00,0x00,0x00,0x00,0x00,0x00,0x00,0x00,0xc6,0x3d,0x88,0xe3,
 0x8d,0xbd,0x70,0xe3,0x3f,0x8e,0x13,0xc7,0x13,0xc7,0x1b,0xf3,0xe3,0x38,0x6e,
 0xcc,0x8b,0xe3,0x8d,0x03,0x10,0x0f,0x60,0x1c,0x4f,0x1c,0x3f,0x8e,0x1f,0xc7,
 0x8f,0xe3,0x01,0x00,0x00,0x00,0x00,0x00,0x00,0x00,0x00,0x00,0x00,0x00,0x00,
 0x00,0x00,0x00,0x00,0x00,0x00,0x00,0x00,0x00,0x00,0x00,0x00,0x00,0x00,0x00,
 0x00,0x00,0x00,0x00,0x00,0x00,0x00,0x00,0xc2,0x3f,0x8c,0xe3,0x89,0xbe,0x78,
 0xe1,0x1f,0x8f,0x1b,0xc7,0x1b,0xc7,0x8b,0xf9,0x61,0x18,0x2f,0xe6,0x8f,0xe3,
 0xc5,0x03,0x10,0x0f,0x20,0x1c,0x67,0x1c,0x1f,0x8e,0x8b,0xe3,0x85,0xe3,0x00,
 0x00,0x00,0x00,0x00,0x00,0x00,0x00,0x00,0x00,0x00,0x00,0x00,0x00,0x00,0x00,
 0x00,0x00,0x00,0x00,0x00,0x00,0x00,0x00,0x00,0x00,0x00,0x00,0x00,0x00,0x00,
 0x00,0x00,0x00,0x00,0x00,0xe2,0xff,0x84,0xf1,0x88,0xbe,0x78,0xf1,0x11,0xc7,
 0x0b,0xe3,0x09,0xe3,0x09,0xfe,0x71,0x1c,0x3f,0xf8,0x87,0xf1,0xc4,0x03,0x10,
 0x07,0x20,0x9e,0x27,0x8c,0x17,0xcf,0x8b,0xe3,0xc7,0xf3,0x00,0x00,0x00,0x00,
 0x00,0x00,0x00,0x00,0x00,0x00,0x00,0x00,0x00,0x00,0x00,0x00,0x00,0x00,0x00,
 0x00,0x00,0x00,0x00,0x00,0x00,0x00,0x00,0x00,0x00,0x00,0x00,0x00,0x00,0x00,
 0x00,0x00,0xe2,0xef,0xc4,0xf1,0x09,0xdf,0xf8,0xf1,0x10,0xc7,0x8b,0xe3,0x8b,
 0xe3,0x8b,0x7f,0x71,0x1c,0x3d,0xfe,0xc5,0xf1,0xc5,0x07,0x30,0xcf,0x2f,0x8e,
 0x2f,0x8e,0x1f,0xc7,0x8f,0xa3,0xc7,0xf1,0x01,0x00,0x00,0x00,0x00,0x00,0x00,
 0x00,0x00,0x00,0x00,0x00,0x00,0x00,0x00,0x00,0x00,0x00,0x00,0x00,0x00,0x00,
 0x00,0x00,0x00,0x00,0x00,0x00,0x00,0x00,0x00,0x00,0x00,0x00,0x00,0x00,0xe3,
 0xe7,0xc4,0xd1,0x89,0x4f,0xe8,0xf1,0x10,0xe7,0x8b,0xa3,0x8b,0xa3,0x8b,0xf7,
 0x71,0x1c,0x3d,0xde,0xc5,0xd1,0x47,0x07,0x30,0x7e,0x2e,0x8e,0x2e,0x8e,0x1e,
 0x47,0x8f,0xa0,0xc7,0xd1,0x01,0x00,0x00,0x00,0x00,0x00,0x00,0x00,0x00,0x00,
 0x00,0x00,0x00,0x00,0x00,0x00,0x00,0x00,0x00,0x00,0x00,0x00,0x00,0x00,0x00,
 0x00,0x00,0x00,0x00,0x00,0x00,0x00,0x00,0x00,0x00,0x80,0xe1,0xf1,0xc6,0xe1,
 0xc9,0x4f,0xf0,0x78,0x30,0xf3,0x8d,0xc3,0x8f,0xc3,0x9b,0xfb,0x38,0x0e,0x7e,
 0xee,0xc7,0xe1,0x83,0x07,0x70,0xbc,0x2f,0x02,0x3f,0x0e,0x1f,0x81,0x0f,0xc0,
 0x47,0xe0,0x01,0x00,0x00,0x00,0x00,0x00,0x00,0x00,0x00,0x00,0x00,0x00,0x00,
 0x00,0x00,0x00,0x00,0x00,0x00,0x00,0x00,0x00,0x00,0x00,0x00,0x00,0x00,0x00,
 0x00,0x00,0x00,0x00,0x00,0x00,0x00,0x80,0x00,0xf0,0xe2,0xf1,0xe9,0xc7,0xf8,
 0x78,0x70,0xf8,0xc5,0xe3,0xc7,0xe3,0x3b,0xfc,0x38,0x1e,0xff,0xf0,0xe3,0xf1,
 0xc7,0x07,0xe0,0xc1,0x6f,0x8c,0x1f,0x8f,0x3f,0xc6,0x1f,0xe3,0x8f,0xf1,0x01,
 0x00,0x00,0x00,0x00,0x00,0x00,0x00,0x00,0x00,0x00,0x00,0x00,0x00,0x00,0x00,
 0x00,0x00,0x00,0x00,0x00,0x00,0x00,0x00,0x00,0x00,0x00,0x00,0x00,0x00,0x00,
 0x00,0x00,0x00,0x00,0x80,0xff,0xff,0xfe,0xff,0xf9,0xc3,0xff,0x7f,0xf0,0xff,
 0xfc,0xff,0xff,0xff,0xfb,0xff,0xff,0xff,0xff,0xff,0xff,0xff,0xff,0x07,0xe0,
 0xff,0xef,0xff,0xff,0xff,0xff,0xff,0xff,0xff,0xff,0xff,0x01,0x00,0x00,0x00,
 0x00,0x00,0x00,0x00,0x00,0x00,0x00,0x00,0x00,0x00,0x00,0x00,0x00,0x00,0x00,
 0x00,0x00,0x00,0x00,0x00,0x00,0x00,0x00,0x00,0x00,0x00,0x00,0x00,0x00,0x00,
 0x00,0x80,0xff,0x7f,0xfe,0xff,0xf8,0xc1,0xff,0x3f,0xe0,0x7f,0xfc,0xff,0xfd,
 0xff,0xf1,0xbf,0xff,0xff,0xcf,0xff,0xfe,0xff,0xfe,0x03,0xc0,0xff,0xe3,0xff,
 0xf7,0xff,0xf7,0xff,0xfb,0xff,0xfd,0xff,0x00,0x00,0x00,0x00,0x00,0x00,0x00,
 0x00,0x00,0x00,0x00,0x00,0x00,0x00,0x00,0x00,0x00,0x00,0x00,0x00,0x00,0x00,
 0x00,0x00,0x00,0x00,0x00,0x00,0x00,0x00,0x00,0x00,0x00,0x00,0x00,0x80,0xff,
 0x7f,0xfe,0x7f,0xf8,0x80,0xbf,0x3f,0xc0,0x3f,0xfc,0xff,0xfc,0xff,0xe0,0x9f,
 0xff,0xff,0x87,0x7f,0xfe,0x7f,0xfc,0x01,0x00,0xff,0xc1,0xff,0xf3,0xff,0xe3,
 0xff,0xf1,0xff,0xf8,0x7f,0x00,0x00,0x00,0x00,0x00,0x00,0x00,0x00,0x00,0x00,
 0x00,0x00,0x00,0x00,0x00,0x00,0x00,0x00,0x00,0x00,0x00,0x00,0x00,0x00,0x00,
 0x00,0x00,0x00,0x00,0x00,0x00,0x00,0x00,0x00,0x00,0x00,0x00,0x00,0x00,0x00,
 0x00,0x00,0x00,0x00,0x00,0x00,0x00,0x00,0x00,0x00,0x00,0x00,0x00,0x00,0x00,
 0x00,0x00,0x00,0x00,0x00,0x00,0x00,0x00,0x00,0x00,0x00,0x00,0x00,0x00,0x00,
 0x00,0x00,0x00,0x00,0x00,0x00,0x00,0x00,0x00,0x00,0x00,0x00,0x00,0x00,0x00,
 0x00,0x00,0x00,0x00,0x00,0x00,0x00,0x00,0x00,0x00,0x00,0x00,0x00,0x00,0x00,
 0x00,0x00,0x00,0x00,0x00,0x00,0x00,0x00,0x00,0x00,0x00,0x00,0x00,0x00,0x00,
 0x00,0x00,0x00,0x00,0x00,0x00,0x00,0x00,0x00,0x00,0x00,0x00,0x00,0x00,0x00,
 0x00,0x00,0x00,0x00,0x00,0x00,0x00,0x00,0x00,0x00,0x00,0x00,0x00,0x00,0x00,
 0x00,0x00,0x00,0x00,0x00,0x00,0x00,0x00,0x00,0x00,0x00,0x00,0x00,0x00,0x00,
 0x00,0x00,0x00,0x00,0x00,0x00,0x00,0x00,0x00,0x00,0x00,0x00,0x00,0x00,0x00,
 0x00,0x00,0x00,0x00,0x00,0x00,0x00,0x00,0x00,0x00,0x00,0x00,0x00,0x00,0x00,
 0x00,0x00,0x00,0x00,0x00,0x00,0x00,0x00,0x00,0x00,0x00,0x00,0x00,0x00,0x00,
 0x00,0x00,0x00,0x00,0x00,0x00,0x00,0x00,0x00,0x00,0x00,0x00,0x00,0x00,0x00,
 0x00,0x00,0x00,0x00,0x00,0x00,0x00,0x00,0x00,0x00,0x00,0x00,0x00,0x00,0x00,
 0x00,0x00,0x00,0x00,0x00,0x00,0x00,0x00,0x00,0x00,0x00,0x00,0x00,0x00,0x00,
 0x00,0x00,0x00,0x00,0x00,0x00,0x00,0x00,0x00,0x00,0x00,0x00,0x00,0x00,0x00,
 0x00,0x00,0x00,0x00,0x00,0x00,0x00,0x00,0x00,0x00,0x00,0x00,0x00,0x00,0x00,
 0x00,0x00,0x00,0x00,0x00,0x00,0x00,0x00,0x00,0x00,0x00,0x00,0x00,0x00,0x00,
 0x00,0x00,0x00,0x00,0x00,0x00,0x00,0x00,0x00,0x00,0x00,0x00,0x00,0x00,0x00,
 0x00,0x00,0x00,0x00,0x00,0x00,0x00,0x00,0x00,0x00,0x00,0x00,0x00,0x00,0x00,
 0x00,0x00,0x00,0x00,0x00,0x00,0x00,0x00,0x00,0x00,0x00,0x00,0x00,0x00,0x00,
 0x00,0x00,0x00,0x00,0x00,0x00,0x00,0x00,0x00,0x00,0x00,0x00,0x00,0x00,0x00,
 0x00,0x00,0x00,0x00,0x00,0x00};
