#define service_e_width 425
#define service_e_height 30
static char service_e_bits[] = {
 0x00,0x00,0x00,0x00,0x00,0x00,0x00,0x00,0x00,0x00,0x00,0x00,0x00,0x00,0x00,
 0x00,0x00,0x00,0x00,0x00,0x00,0x00,0x00,0x00,0x00,0x00,0x00,0x00,0x00,0x00,
 0x00,0x00,0x00,0x00,0x00,0x00,0x00,0x00,0x00,0x00,0x00,0x00,0x00,0x00,0x00,
 0x00,0x00,0x00,0x00,0x00,0x00,0x00,0x00,0x00,0x00,0x00,0x00,0x00,0x00,0x00,
 0x00,0x00,0x00,0x00,0x00,0x00,0x00,0x00,0x00,0x00,0x00,0x00,0x00,0x00,0x00,
 0x00,0x00,0x00,0x00,0x00,0x00,0x00,0x00,0x00,0x00,0x00,0x00,0x00,0x00,0x00,
 0x00,0x00,0x00,0x00,0x00,0x00,0x00,0x00,0x00,0x00,0x00,0x00,0x00,0x00,0x00,
 0x00,0x00,0x00,0x00,0x00,0x00,0x00,0x00,0x00,0x00,0x00,0x00,0x00,0x00,0x00,
 0x00,0x00,0x00,0x00,0x00,0x00,0x00,0x00,0x00,0x00,0x00,0x00,0x00,0x00,0x00,
 0x00,0x00,0x00,0x00,0x00,0x00,0x00,0x00,0x00,0x00,0x00,0x00,0x00,0x00,0x00,
 0x00,0x00,0x00,0x00,0x00,0x00,0x00,0x00,0x00,0x00,0x00,0x00,0x00,0x00,0x00,
 0x00,0x00,0x00,0x00,0x00,0x00,0x00,0x00,0x00,0x00,0x00,0x00,0x00,0x00,0x00,
 0x00,0x00,0x00,0x00,0x00,0x00,0x00,0x00,0x00,0x00,0x00,0x00,0x00,0x00,0x00,
 0x00,0x00,0x00,0x00,0x00,0x00,0x00,0x00,0x00,0x00,0x00,0x00,0x00,0x00,0x00,
 0x00,0x00,0x00,0x00,0x00,0x00,0x00,0x00,0x00,0x00,0x00,0x00,0x00,0x00,0x00,
 0x00,0x00,0x00,0x00,0x00,0x00,0x00,0x00,0x00,0x00,0x00,0x00,0x00,0x00,0x00,
 0x00,0x00,0x00,0x00,0x00,0x00,0x00,0x00,0x00,0x00,0x00,0x00,0x00,0x00,0x00,
 0x00,0x00,0x00,0x00,0x00,0x00,0x00,0x00,0x00,0x00,0x00,0x00,0x00,0x00,0x00,
 0x00,0x00,0x00,0x00,0x00,0x00,0x00,0x00,0x00,0x00,0x00,0x00,0x00,0x00,0x00,
 0x00,0x00,0x00,0x00,0x00,0x00,0x00,0x00,0x00,0x00,0x00,0x00,0x00,0x00,0x00,
 0x00,0x00,0x00,0x00,0x00,0x00,0x00,0x00,0x00,0x00,0x00,0x00,0x00,0x00,0x00,
 0x00,0x00,0x00,0x00,0x00,0x00,0x00,0x00,0x00,0x00,0x40,0x00,0x00,0x00,0x00,
 0x00,0x80,0x07,0x00,0x00,0x03,0x00,0xff,0x03,0x00,0x60,0x00,0x00,0x00,0x00,
 0x00,0x00,0x00,0x00,0xbc,0x00,0x00,0x00,0x0c,0x00,0x00,0x00,0xf0,0x3f,0x00,
 0x00,0x06,0x00,0x00,0x00,0x00,0x00,0x00,0x00,0x00,0x5e,0x00,0x00,0x00,0x00,
 0x07,0x00,0x00,0x00,0x60,0x00,0x00,0x00,0x00,0x00,0x00,0x07,0x00,0x00,0x03,
 0x00,0x0c,0x03,0x00,0x60,0x00,0x00,0x00,0x00,0x00,0x00,0x00,0x00,0xc6,0x00,
 0x00,0x00,0x0c,0x00,0x00,0x00,0xc0,0x30,0x00,0x00,0x06,0x00,0x00,0x00,0x00,
 0x00,0x00,0x00,0x80,0x61,0x00,0x00,0x00,0x00,0x06,0x00,0x00,0x00,0x60,0x40,
 0x00,0x00,0x00,0x00,0x00,0x03,0x00,0x00,0x00,0x00,0x06,0x01,0x00,0x00,0x00,
 0x00,0x00,0x00,0x00,0x00,0x00,0x04,0x46,0x00,0x00,0x00,0x00,0x00,0x00,0x00,
 0x60,0x10,0x00,0x00,0x00,0x00,0x00,0x00,0x00,0x00,0x00,0x40,0xc0,0x20,0x00,
 0x00,0x00,0x00,0x03,0x00,0x00,0x00,0xd0,0x60,0x00,0x00,0x00,0x00,0x00,0x03,
 0x00,0x00,0x00,0x00,0x46,0x00,0x00,0x00,0x00,0x00,0x00,0x00,0x00,0x00,0x00,
 0x06,0x06,0x00,0x00,0x00,0x00,0x00,0x00,0x00,0x60,0x04,0x00,0x00,0x00,0x00,
 0x00,0x00,0x00,0x00,0x00,0x60,0x60,0x20,0x00,0x00,0x00,0x00,0x03,0x00,0x00,
 0x00,0xc8,0xf8,0xee,0x06,0x0f,0xef,0x0e,0x3b,0xbc,0xf7,0xc1,0x01,0x66,0xbc,
 0x3b,0x3b,0x6f,0x3c,0xef,0xdc,0x0d,0xde,0xbb,0x0f,0x0e,0xf0,0xde,0x67,0x07,
 0x07,0x0f,0x00,0x60,0xc6,0xbb,0xb3,0xf3,0xc6,0xf3,0xce,0xdd,0xe0,0xbd,0xfb,
 0x60,0x00,0x6c,0xef,0xb0,0xe1,0xc3,0x06,0x00,0x00,0xc8,0x30,0xdc,0x8f,0x99,
 0xc9,0x99,0x35,0x36,0xbe,0x61,0x03,0x7e,0x58,0x33,0x33,0x7c,0x66,0xd6,0xb8,
 0x1f,0x9b,0x35,0x03,0x1c,0xd8,0xf8,0x66,0x86,0x8d,0x0d,0x00,0xe0,0x87,0x35,
 0x33,0xc3,0x67,0x66,0x8d,0xfb,0xb1,0x59,0x33,0x30,0x00,0x76,0xd6,0xd8,0x31,
 0x63,0x07,0x00,0x00,0xc4,0x30,0xee,0xc6,0x98,0xc9,0x98,0x33,0x33,0x87,0x31,
 0x03,0x23,0x38,0x33,0x32,0x0e,0x63,0xce,0xdc,0x8d,0x99,0x33,0x03,0x38,0xcc,
 0x1c,0x46,0xc6,0xcc,0x0c,0x00,0x30,0x82,0x33,0x23,0xe3,0x30,0xe6,0xcc,0xdd,
 0x98,0x39,0x33,0x30,0x00,0x33,0xce,0xcc,0x98,0x31,0x03,0x00,0x00,0xfc,0x30,
 0x66,0xc6,0x98,0xc3,0x98,0xb1,0x19,0x83,0x19,0x00,0x23,0x18,0x33,0x31,0x06,
 0x63,0xc6,0xcc,0xcc,0x8c,0x31,0x03,0x70,0x66,0x0c,0x26,0x66,0x60,0x06,0x3c,
 0x30,0x82,0x31,0x13,0x63,0x30,0x66,0xcc,0xcc,0xcc,0x18,0x33,0x30,0x00,0x33,
 0xc6,0xcc,0x98,0x31,0x03,0x00,0x00,0xc2,0x18,0x66,0x66,0x0c,0x67,0x8c,0x99,
 0x07,0xc3,0x18,0x00,0x03,0x9c,0xb1,0x18,0x86,0x31,0x67,0xcc,0xcc,0xc3,0x99,
 0x01,0x61,0x1e,0x0c,0x16,0x63,0xe0,0x01,0x3c,0x30,0xc0,0x19,0x8b,0x61,0x18,
 0x73,0xc6,0xcc,0x3c,0x9c,0x19,0x30,0x80,0x31,0x67,0xc6,0x8c,0x19,0x03,0x00,
 0x00,0x81,0x19,0x66,0x67,0x4c,0x66,0xcc,0x98,0x01,0xc3,0x1a,0x01,0x03,0x8d,
 0x71,0x58,0x86,0x31,0x63,0xcc,0xce,0xc0,0x98,0x01,0x61,0x06,0x0c,0x0e,0x6b,
 0x64,0x00,0x00,0x30,0xd0,0x18,0x87,0x65,0x18,0x33,0xc6,0xec,0x0c,0x8c,0x19,
 0x30,0x90,0x39,0x63,0xe6,0xcc,0x9b,0x03,0x00,0x00,0x81,0x59,0x33,0x6b,0x46,
 0x66,0xc6,0xb8,0x91,0xc1,0x1a,0x81,0xc1,0x8d,0x33,0x58,0x83,0x19,0xe3,0x66,
 0xd6,0xc8,0xb8,0x85,0x33,0x46,0x06,0x06,0x6b,0x64,0x04,0x00,0x18,0xdc,0x38,
 0x83,0x35,0x98,0x31,0x6e,0x66,0x8d,0x8c,0x5b,0x60,0x8c,0x59,0xe3,0x66,0xcd,
 0x9a,0x05,0x00,0x80,0xe3,0x3b,0x33,0xc7,0xc3,0xe3,0xc3,0x18,0x8f,0xc1,0xf1,
 0xc0,0xff,0x8c,0x11,0x38,0x03,0x0f,0x63,0x66,0x8e,0xc7,0x98,0x83,0x1e,0x3c,
 0x06,0x02,0xc7,0xc3,0x03,0x00,0xfc,0xcf,0x18,0x81,0x33,0xf0,0x30,0x66,0xe6,
 0x78,0x8c,0x39,0xc0,0x03,0x37,0x63,0xdc,0xf8,0x71,0x03,0x00,0x00,0x00,0x00,
 0x00,0x00,0x00,0x30,0x00,0x00,0x00,0x00,0x00,0x00,0x00,0x00,0x00,0x00,0x00,
 0x00,0x00,0x00,0x00,0x00,0x00,0x00,0x00,0x00,0x00,0x00,0x00,0x00,0x00,0x00,
 0x00,0x00,0x00,0x00,0x00,0x00,0x00,0x00,0x00,0x00,0x00,0x00,0x00,0x00,0x00,
 0x00,0x00,0x00,0x00,0x00,0x00,0x00,0x00,0x00,0x00,0x00,0x00,0x30,0x00,0x00,
 0x00,0x00,0x00,0x00,0x00,0x00,0x00,0x00,0x00,0x00,0x00,0x00,0x00,0x00,0x00,
 0x00,0x00,0x00,0x00,0x00,0x00,0x00,0x00,0x00,0x00,0x00,0x00,0x00,0x00,0x00,
 0x00,0x00,0x00,0x00,0x00,0x00,0x00,0x00,0x00,0x00,0x00,0x00,0x00,0x00,0x00,
 0x00,0x00,0x00,0x00,0x00,0x00,0x30,0x00,0x00,0x00,0x00,0x00,0x00,0x00,0x00,
 0x00,0x00,0x00,0x00,0x00,0x00,0x00,0x00,0x00,0x00,0x00,0x00,0x00,0x00,0x00,
 0x00,0x00,0x00,0x00,0x00,0x00,0x00,0x00,0x00,0x00,0x00,0x00,0x00,0x00,0x00,
 0x00,0x00,0x00,0x00,0x00,0x00,0x00,0x00,0x00,0x00,0x00,0x00,0x00,0x00,0x00,
 0x78,0x00,0x00,0x00,0x00,0x00,0x00,0x00,0x00,0x00,0x00,0x00,0x00,0x00,0x00,
 0x00,0x00,0x00,0x00,0x00,0x00,0x00,0x00,0x00,0x00,0x00,0x00,0x00,0x00,0x00,
 0x00,0x00,0x00,0x00,0x00,0x00,0x00,0x00,0x00,0x00,0x00,0x00,0x00,0x00,0x00,
 0x00,0x00,0x00,0x00,0x00,0x00,0x00,0x00,0x00,0x00,0x00,0x00,0x00,0x00,0x00,
 0x00,0x00,0x00,0x00,0x00,0x00,0x00,0x00,0x00,0x00,0x00,0x00,0x00,0x00,0x00,
 0x00,0x00,0x00,0x00,0x00,0x00,0x00,0x00,0x00,0x00,0x00,0x00,0x00,0x00,0x00,
 0x00,0x00,0x00,0x00,0x00,0x00,0x00,0x00,0x00,0x00,0x00,0x00,0x00,0x00,0x00,
 0x00,0x00,0x00,0x00,0x00,0x00,0x00,0x00,0x00,0x00,0x00,0x00,0x00,0x00,0x00,
 0x00,0x00,0x00,0x00,0x00,0x00,0x00,0x00,0x00,0x00,0x00,0x00,0x00,0x00,0x00,
 0x00,0x00,0x00,0x00,0x00,0x00,0x00,0x00,0x00,0x00,0x00,0x00,0x00,0x00,0x00,
 0x00,0x00,0x00,0x00,0x00,0x00,0x00,0x00,0x00,0x00,0x00,0x00,0x00,0x00,0x00,
 0x00,0x00,0x00,0x00,0x00,0x00,0x00,0x00,0x00,0x00,0x00,0x00,0x00,0x00,0x00,
 0x00,0x00,0x00,0x00,0x00,0x00,0x00,0x00,0x00,0x00,0x00,0x00,0x00,0x00,0x00,
 0x00,0x00,0x00,0x00,0x00,0x00,0x00,0x00,0x00,0x00,0x00,0x00,0x00,0x00,0x00,
 0x00,0x00,0x00,0x00,0x00,0x00,0x00,0x00,0x00,0x00,0x00,0x00,0x00,0x00,0x00,
 0x00,0x00,0x00,0x00,0x00,0x00,0x00,0x00,0x00,0x00,0x00,0x00,0x00,0x00,0x00,
 0x00,0x00,0x00,0x00,0x00,0x00,0x00,0x00,0x00,0x00,0x00,0x00,0x00,0x00,0x00,
 0x00,0x00,0x00,0x00,0x00,0x00,0x00,0x00,0x00,0x00,0x00,0x00,0x00,0x00,0x00,
 0x00,0x00,0x00,0x00,0x00,0x00,0x00,0x00,0x00,0x00,0x00,0x00,0x00,0x00,0x00,
 0x00,0x00,0x00,0x00,0x00,0x00,0x00,0x00,0x00,0x00,0x00,0x00,0x00,0x00,0x00,
 0x00,0x00,0x00,0x00,0x00,0x00,0x00,0x00,0x00,0x00,0x00,0x00,0x00,0x00,0x00,
 0x00,0x00,0x00,0x00,0x00,0x00,0x00,0x00,0x00,0x00,0x00,0x00,0x00,0x00,0x00,
 0x00,0x00,0x00,0x00,0x00,0x00,0x00,0x00,0x00,0x00,0x00,0x00,0x00,0x00,0x00,
 0x00,0x00,0x00,0x00,0x00,0x00,0x00,0x00,0x00,0x00,0x00,0x00,0x00,0x00,0x00,
 0x00,0x00,0x00,0x00,0x00,0x00,0x00,0x00,0x00,0x00,0x00,0x00,0x00,0x00,0x00,
 0x00,0x00,0x00,0x00,0x00,0x00,0x00,0x00,0x00,0x00,0x00,0x00,0x00,0x00,0x00,
 0x00,0x00,0x00,0x00,0x00,0x00,0x00,0x00,0x00,0x00,0x00,0x00,0x00,0x00,0x00,
 0x00,0x00,0x00,0x00,0x00,0x00,0x00,0x00,0x00,0x00,0x00,0x00,0x00,0x00,0x00,
 0x00,0x00,0x00,0x00,0x00,0x00,0x00,0x00,0x00,0x00,0x00,0x00,0x00,0x00,0x00,
 0x00,0x00,0x00,0x00,0x00,0x00,0x00,0x00,0x00,0x00,0x00,0x00,0x00,0x00,0x00,
 0x00,0x00,0x00,0x00,0x00,0x00,0x00,0x00,0x00,0x00,0x00,0x00,0x00,0x00,0x00,
 0x00,0x00,0x00,0x00,0x00,0x00,0x00,0x00,0x00,0x00,0x00,0x00,0x00,0x00,0x00};
