#define aes_width 436
#define aes_height 60
static char aes_bits[] = {
 0x00,0x00,0x00,0x00,0x00,0x00,0x00,0x00,0x00,0x00,0x00,0x00,0x00,0x00,0x00,
 0x00,0x00,0x00,0x00,0x00,0x00,0x00,0x00,0x00,0x00,0x00,0x00,0x00,0x00,0x00,
 0x00,0x00,0x00,0x00,0x00,0x00,0x00,0x00,0x00,0x00,0x00,0x00,0x00,0x00,0x00,
 0x00,0x00,0x00,0x00,0x00,0x00,0x00,0x00,0x00,0x00,0x00,0x00,0x00,0x00,0x00,
 0x00,0x00,0x00,0x00,0x00,0x00,0x00,0x00,0x00,0x00,0x00,0x00,0x00,0x00,0x00,
 0x00,0x00,0x00,0x00,0x00,0x00,0x00,0x00,0x00,0x00,0x00,0x00,0x00,0x00,0x00,
 0x00,0x00,0x00,0x00,0x00,0x00,0x00,0x00,0x00,0x00,0x00,0x00,0x00,0x00,0x00,
 0x00,0x00,0x00,0x00,0x00,0x00,0x00,0x00,0x00,0x00,0x00,0x00,0x00,0x00,0x00,
 0x00,0x00,0x00,0x00,0x00,0x00,0x00,0x00,0x00,0x00,0x00,0x00,0x00,0x00,0x00,
 0x00,0x00,0x00,0x00,0x00,0x00,0x00,0x00,0x00,0x00,0x00,0x00,0x00,0x00,0x00,
 0x00,0x00,0x00,0x00,0x00,0x00,0x00,0x00,0x00,0x00,0x00,0x00,0x00,0x00,0x00,
 0x00,0x00,0x00,0x00,0x00,0x00,0x00,0x00,0x00,0x00,0x00,0x00,0x00,0x00,0x00,
 0x00,0x00,0x00,0x00,0x00,0x00,0x00,0x00,0x00,0x00,0x00,0x00,0x00,0x00,0x00,
 0x00,0x00,0x00,0x00,0x00,0x00,0x00,0x00,0x00,0x00,0x00,0x00,0x00,0x00,0x00,
 0x00,0x00,0x00,0x00,0x00,0x00,0x00,0x00,0x00,0x00,0x00,0x00,0x00,0x00,0x00,
 0x00,0x00,0x00,0x00,0x00,0x00,0x00,0x00,0x00,0x00,0x00,0x00,0x00,0x00,0x00,
 0x00,0x00,0x00,0x00,0x00,0x00,0x00,0x00,0x00,0x00,0x00,0x00,0x00,0x00,0x00,
 0x00,0x00,0x00,0x00,0x00,0x00,0x00,0x00,0x00,0x00,0x00,0x00,0x00,0x00,0x00,
 0x00,0x00,0x00,0x00,0x00,0x00,0x00,0x00,0x00,0x00,0x00,0x00,0x00,0x00,0x00,
 0x00,0x00,0x00,0x00,0x00,0x00,0x00,0x00,0x00,0x00,0x00,0x00,0x00,0x00,0x00,
 0x00,0x00,0x00,0x00,0x00,0x00,0x00,0x00,0x00,0x00,0x00,0x00,0x00,0x00,0x00,
 0x00,0x00,0x00,0x00,0x00,0x00,0x00,0x00,0x00,0x00,0x00,0x00,0x00,0x00,0x00,
 0x00,0x00,0x00,0x00,0x00,0x00,0x00,0x00,0x00,0x00,0x00,0x00,0x00,0x00,0x00,
 0x00,0x00,0x00,0x00,0x00,0x00,0x00,0x00,0x00,0x00,0x00,0x00,0x00,0x00,0x00,
 0x00,0x00,0x00,0x00,0x00,0x00,0x00,0x00,0x00,0x00,0x00,0x00,0x00,0x00,0x00,
 0x00,0x00,0x00,0x00,0x00,0x00,0x00,0x00,0x00,0x00,0x00,0x00,0xe0,0x03,0x00,
 0x00,0x00,0x00,0x00,0x00,0x00,0x00,0x00,0xfe,0x01,0x00,0x00,0x00,0xf8,0x03,
 0x00,0x00,0xfe,0xff,0x01,0x00,0x00,0x00,0xfe,0x00,0x00,0x00,0x00,0x00,0x00,
 0x00,0x00,0x00,0x00,0x00,0x00,0x00,0x00,0xfc,0x1f,0x00,0x00,0x00,0x00,0x80,
 0x3f,0x00,0x00,0x00,0x00,0x00,0x00,0xb0,0x03,0x00,0x00,0x00,0x00,0x00,0x00,
 0x00,0x00,0x00,0xc2,0x01,0x00,0x00,0x00,0x88,0x03,0x00,0x00,0x02,0xc0,0x01,
 0x00,0x00,0x00,0xe2,0x00,0x00,0x00,0x00,0x00,0x00,0x00,0x00,0x00,0x00,0x00,
 0x00,0x00,0x00,0x86,0x1d,0x00,0x00,0x00,0x00,0x80,0x38,0x00,0x00,0x00,0x00,
 0x00,0x00,0x98,0x03,0xf8,0x01,0x00,0x00,0x00,0x00,0x00,0x00,0x00,0xc6,0x01,
 0x00,0x00,0x00,0x88,0x03,0x00,0x00,0x8e,0xc7,0x01,0x00,0x00,0x00,0xe2,0x00,
 0x00,0x00,0x00,0x00,0x00,0x00,0x00,0x00,0x00,0x00,0x00,0x3f,0x00,0x63,0x1c,
 0x00,0x00,0x00,0x00,0x80,0x38,0x00,0x00,0x00,0x00,0x00,0x00,0x88,0x07,0xcc,
 0x01,0x00,0x00,0x00,0x00,0x00,0x00,0x00,0xc6,0x01,0x00,0x00,0x00,0x88,0x03,
 0x00,0x00,0x8e,0xef,0x01,0x00,0x00,0x00,0xe2,0x00,0x00,0x00,0x00,0x00,0x00,
 0x00,0x00,0x00,0x00,0x00,0x80,0x39,0x00,0xf1,0x1c,0x00,0x00,0x00,0x00,0x80,
 0x38,0x00,0x00,0x00,0x00,0x00,0x00,0x0c,0x07,0xe6,0x01,0x00,0x00,0x00,0x00,
 0x00,0x00,0x00,0xc6,0x01,0x00,0x00,0x00,0xf8,0x03,0x00,0x00,0xc6,0xef,0x01,
 0x00,0x00,0x00,0xfe,0x00,0x00,0x00,0x00,0x00,0x00,0x00,0x00,0x00,0x00,0x00,
 0xc0,0x3c,0x00,0xf1,0x1e,0x00,0x00,0x00,0x00,0x80,0x3f,0x00,0x00,0x00,0x00,
 0x00,0x00,0x14,0x87,0xe3,0xff,0xff,0x0f,0xfe,0xc1,0xff,0xff,0x1f,0xe2,0x1f,
 0xf8,0xf7,0xff,0xff,0xe3,0x1f,0x00,0xc4,0xff,0xff,0x7f,0xff,0xff,0xff,0xff,
 0x8f,0x7f,0xfc,0xff,0xfc,0xff,0x3f,0xf8,0xf7,0xff,0x73,0x7c,0x00,0xf1,0x1e,
 0xfc,0xfb,0xff,0xff,0xff,0x3f,0xfe,0xc1,0x3f,0x00,0x00,0x00,0x16,0x87,0x80,
 0xc1,0x38,0x0e,0xc3,0x63,0xe8,0x41,0x3c,0x62,0x3c,0x0c,0x1f,0xc6,0xc0,0x33,
 0x3c,0x00,0xc4,0xfb,0x82,0xf1,0xe1,0x3c,0xf0,0x30,0xce,0xf0,0x04,0xe3,0x05,
 0xe3,0x38,0x0c,0x1f,0x8c,0x17,0x70,0x00,0xe1,0x1f,0x86,0x0f,0x63,0x38,0x0f,
 0x3c,0xc3,0x63,0x78,0x00,0x00,0x00,0x1b,0x87,0xf1,0x63,0x18,0x8e,0x99,0x27,
 0xe6,0x03,0x38,0x22,0x38,0x66,0x3e,0xc2,0xe3,0x99,0x39,0x00,0xc6,0xfd,0x86,
 0xe0,0xc3,0xfc,0xf8,0x11,0x6e,0xe6,0x0d,0xc1,0x8d,0x61,0x38,0x66,0x3e,0x04,
 0x37,0x7e,0x00,0xc3,0x0f,0x33,0x1f,0xe1,0x30,0x3f,0x9e,0x99,0x33,0x73,0x00,
 0x00,0x00,0x1d,0x87,0xf1,0xa3,0x28,0xce,0x1c,0x27,0xf6,0xc3,0x38,0xc3,0x38,
 0x73,0x3e,0xc2,0xe3,0xcd,0x38,0x00,0x02,0x3c,0x06,0xe3,0xc7,0xfc,0xf8,0x11,
 0x3e,0xc7,0x0d,0xc6,0x8d,0xa2,0x38,0x73,0x3e,0x18,0x37,0x7e,0x00,0x83,0x8f,
 0x39,0x1f,0xe1,0x31,0x3f,0xde,0x8c,0x9b,0x73,0x00,0x00,0x80,0x1d,0x8f,0xf1,
 0xc3,0x30,0x4e,0x1c,0x27,0xf6,0xe3,0x38,0x61,0x3c,0x71,0x3e,0xfc,0xe3,0xc5,
 0x38,0x00,0xe2,0x3c,0x86,0xf1,0xc7,0xfd,0xf8,0xe1,0x1f,0xc7,0x0d,0xe3,0x0d,
 0xc3,0x38,0x71,0x3e,0x8c,0x37,0x7e,0x00,0x07,0x8f,0x38,0x1f,0xfe,0x71,0x3f,
 0x5e,0x8c,0x8b,0x73,0x00,0x00,0x80,0x3e,0x8e,0x71,0xe3,0x38,0x6e,0x1c,0x27,
 0xfc,0xe3,0x38,0x61,0xbc,0x31,0x3f,0xfe,0xe1,0xc6,0x3f,0x00,0xe3,0x1e,0xc4,
 0xf1,0xc6,0x5e,0xb8,0xf1,0x1f,0xc7,0x89,0xe3,0x8d,0xe3,0xb8,0x31,0x2f,0x8e,
 0x37,0x0e,0x00,0x0e,0xce,0x98,0x1f,0xff,0xb1,0x17,0x6e,0xfc,0x8f,0x79,0x00,
 0x00,0xc0,0x00,0x8e,0x78,0x61,0x18,0x2f,0x1e,0x67,0x7c,0xf1,0xb8,0x71,0xbc,
 0x98,0x1f,0xfe,0xf1,0xe2,0x3f,0x00,0xe1,0x1f,0xc6,0xf1,0x44,0x5f,0xbc,0xf0,
 0x8f,0xc7,0x8d,0xe3,0x85,0x61,0xbc,0x98,0x3f,0x8e,0x17,0x0f,0xc0,0x1f,0x4e,
 0xcc,0x0f,0xff,0xd1,0x17,0x2f,0xfe,0xc7,0x7c,0x00,0x00,0x60,0x3f,0x8e,0x78,
 0x71,0x1c,0x3f,0x8e,0x77,0x78,0x71,0xbc,0x70,0xfe,0xe0,0x1f,0x1f,0xf1,0xe2,
 0x3f,0x00,0xf1,0x7f,0xc2,0x78,0x44,0x5f,0xbc,0xf8,0x88,0xe3,0x85,0xf1,0xc4,
 0x71,0xfc,0xe0,0x1f,0xc6,0x13,0x0f,0x40,0x3f,0x4e,0xf0,0x8f,0x0f,0xd1,0x17,
 0x2f,0xfe,0x07,0x7f,0x00,0x00,0xa0,0x3f,0x8e,0xf8,0x71,0x1c,0x3d,0x8e,0xd7,
 0x38,0x71,0xbc,0x38,0xf6,0xf8,0x17,0x8f,0xf1,0xe3,0x1d,0x00,0xf1,0x77,0xe2,
 0xf8,0x84,0x6f,0xfc,0x78,0x88,0xe3,0xc5,0xf1,0xc5,0x71,0xf4,0xf8,0x17,0xc7,
 0x17,0x1f,0x60,0x3f,0x4e,0xfc,0x8b,0x07,0xe1,0x1b,0x3f,0xde,0xc5,0x3f,0x00,
 0x00,0xb0,0x3f,0xde,0xe8,0x71,0x1c,0x3d,0xce,0xdf,0xb8,0x39,0xbe,0x38,0xfa,
 0x78,0x1f,0x8f,0xd0,0xe3,0x1d,0x80,0xf1,0x73,0xe2,0xe8,0xc4,0x27,0xf4,0x78,
 0x88,0xf3,0xc5,0xd1,0xc7,0x71,0xf4,0x78,0x17,0x47,0x1f,0x1d,0x20,0x3f,0x4f,
 0xbc,0x8f,0x07,0xf1,0x09,0x3d,0xde,0xc5,0x3b,0x00,0x00,0x98,0x3f,0x7c,0xf0,
 0x38,0x0e,0x7e,0xe6,0xcb,0xb8,0x18,0xdf,0x38,0xfc,0xb9,0x8f,0x87,0xe0,0xc7,
 0x1e,0xc0,0xf0,0x78,0xe3,0xf0,0xe4,0x27,0x78,0x3c,0x98,0xf9,0xc6,0xe1,0xe3,
 0x38,0xf8,0xb9,0x1f,0x87,0x0f,0x1e,0x20,0x1e,0xcf,0xdc,0xc7,0x03,0xf9,0x09,
 0x7e,0xec,0xcd,0x3d,0x00,0x00,0x08,0x0f,0xf8,0xf8,0x38,0x1e,0xff,0xf0,0x2b,
 0xbe,0xc0,0x5f,0x3c,0xfe,0xc3,0x8f,0x87,0xf1,0x0f,0x1f,0x40,0x00,0x78,0xf1,
 0xf8,0xf4,0x63,0x7c,0x3c,0x38,0xfc,0xe2,0xf1,0xe3,0x78,0xfc,0xc3,0x8f,0xc7,
 0x1f,0x1f,0xa0,0xc1,0xcf,0xe1,0xc7,0x03,0xfd,0x18,0xff,0xf0,0x1d,0x3e,0x00,
 0x00,0xf8,0xff,0xff,0xff,0xff,0xff,0xff,0xff,0xf9,0xff,0xf8,0xcf,0xff,0xbf,
 0xff,0xff,0x87,0xff,0xff,0x1f,0xc0,0xff,0x7f,0xff,0xff,0xfc,0xe1,0xff,0x3f,
 0xf8,0x7f,0xfe,0xff,0xff,0xff,0xff,0xff,0xff,0xff,0xff,0x1f,0xe0,0xff,0xc7,
 0xff,0xff,0x03,0x7f,0xf8,0xff,0xff,0xfd,0x3f,0x00,0x00,0xf8,0xff,0xff,0xff,
 0xff,0xff,0xcf,0xff,0xf8,0x7f,0xfc,0xc7,0xff,0x1f,0xff,0xfb,0x83,0xff,0xfc,
 0x0f,0xc0,0xff,0x3f,0xff,0x7f,0xfc,0xe0,0xff,0x1f,0xf0,0x3f,0xfe,0xff,0xfe,
 0xff,0x3f,0xff,0xfb,0xff,0xfb,0x0f,0xe0,0xff,0x87,0xff,0xfd,0x01,0x3f,0xf8,
 0xcf,0xff,0xf8,0x1f,0x00,0x00,0xf8,0xff,0xbf,0xbf,0xff,0xff,0x87,0x7f,0xf8,
 0x4f,0xfc,0xc1,0xff,0x0f,0xfe,0xf9,0x03,0x7f,0xf8,0x07,0xc0,0xff,0x3f,0xff,
 0x3f,0x7c,0xc0,0xdf,0x1f,0xe0,0x1f,0xfe,0x7f,0xfe,0xff,0x1f,0xfe,0xf9,0xff,
 0xf1,0x07,0xe0,0xff,0x01,0xff,0xfc,0x01,0x1f,0xf0,0x87,0x7f,0xf0,0x0f,0x00,
 0x00,0x00,0x00,0x00,0x00,0x00,0x00,0x00,0x00,0x00,0x70,0x7c,0x00,0x00,0x00,
 0x00,0x00,0x00,0x00,0x00,0x00,0x00,0x00,0x00,0x00,0x00,0x00,0x00,0x00,0x00,
 0x00,0x00,0x00,0x00,0x00,0x00,0x00,0x00,0x00,0x00,0x00,0x00,0x00,0x00,0x00,
 0x00,0x00,0x00,0x00,0x00,0x00,0x00,0x00,0x00,0x00,0x00,0x00,0x00,0x00,0x00,
 0x00,0x00,0x00,0x00,0x00,0x10,0x70,0x00,0x00,0x00,0x00,0x00,0x00,0x00,0x00,
 0x00,0x00,0x00,0x00,0x00,0x00,0x00,0x00,0x00,0x00,0x00,0x00,0x00,0x00,0x00,
 0x00,0x00,0x00,0x00,0x00,0x00,0x00,0x00,0x00,0x00,0x00,0x00,0x00,0x00,0x00,
 0x00,0x00,0x00,0x00,0x00,0x00,0x00,0x00,0x00,0x00,0x00,0x00,0x00,0x00,0x00,
 0xf0,0x7f,0x00,0x00,0x00,0x00,0x00,0x00,0x00,0x00,0x00,0x00,0x00,0x00,0x00,
 0x00,0x00,0x00,0x00,0x00,0x00,0x00,0x00,0x00,0x00,0x00,0x00,0x00,0x00,0x00,
 0x00,0x00,0x00,0x00,0x00,0x00,0x00,0x00,0x00,0x00,0x00,0x00,0x00,0x00,0x00,
 0x00,0x00,0x00,0x00,0x00,0x00,0x00,0x00,0x00,0x00,0xf0,0x7f,0x00,0x00,0x00,
 0x00,0x00,0x00,0x00,0x00,0x00,0x00,0x00,0x00,0x00,0x00,0x00,0x00,0x00,0x00,
 0x00,0x00,0x00,0x00,0x00,0x00,0x00,0x00,0x00,0x00,0x00,0x00,0x00,0x00,0x00,
 0x00,0x00,0x00,0x00,0x00,0x00,0x00,0x00,0x00,0x00,0x00,0x00,0x00,0x00,0x00,
 0x00,0x00,0x00,0x00,0x00,0xf0,0x7f,0x00,0x00,0x00,0x00,0x00,0x00,0x00,0x00,
 0x00,0x00,0x00,0x00,0x00,0x00,0x00,0x00,0x00,0x00,0x00,0x00,0x00,0x00,0x00,
 0x00,0x00,0x00,0x00,0x00,0x00,0x00,0x00,0x00,0x00,0x00,0x00,0x00,0x00,0x00,
 0x00,0x00,0x00,0x00,0x00,0x00,0x00,0x00,0x00,0x00,0x00,0x00,0x00,0x00,0x00,
 0x00,0x00,0x00,0x00,0x00,0x00,0x00,0x00,0x00,0x00,0x00,0x00,0x00,0x00,0x00,
 0x00,0x00,0x00,0x00,0x00,0x00,0x00,0x00,0x00,0x00,0x00,0x00,0x00,0x00,0x00,
 0x00,0x00,0x00,0x00,0x00,0x00,0x00,0x00,0x00,0x00,0x00,0x00,0x00,0x00,0x00,
 0x00,0x00,0x00,0x00,0x00,0x00,0x00,0x00,0x00,0x00,0x00,0x00,0x00,0x00,0x00,
 0x00,0x00,0x00,0x00,0x00,0x00,0x00,0x00,0x00,0x00,0x00,0x00,0x00,0x00,0x00,
 0x00,0x00,0x00,0x00,0x00,0x00,0x00,0x00,0x00,0x00,0x00,0x00,0x00,0x00,0x00,
 0x00,0x00,0x00,0x00,0x00,0x00,0x00,0x00,0x00,0x00,0x00,0x00,0x00,0x00,0x00,
 0x00,0x00,0x00,0x00,0x00,0x00,0x00,0x00,0x00,0x00,0x00,0x00,0x00,0x00,0x00,
 0x00,0xf0,0xff,0x0f,0x00,0x00,0x00,0xf0,0x07,0x00,0x00,0x00,0x00,0x00,0x00,
 0x00,0x00,0x00,0x00,0x00,0x00,0x00,0x80,0xff,0x07,0x00,0x00,0x00,0x00,0x00,
 0x00,0xff,0x00,0x00,0x00,0x00,0x00,0x00,0x00,0x00,0x00,0x00,0x00,0x00,0x00,
 0x00,0x00,0x00,0x00,0x00,0x00,0x00,0x00,0x00,0x00,0x00,0x10,0x00,0x0e,0x00,
 0x00,0x00,0x10,0x07,0x00,0x00,0x00,0x00,0x00,0x00,0x00,0x00,0x00,0x00,0x00,
 0x00,0x00,0xe0,0x40,0x07,0x00,0x00,0x00,0x00,0x00,0x00,0xe1,0x00,0x00,0x00,
 0x00,0x00,0x00,0x00,0x00,0x00,0x00,0x00,0x00,0x00,0x00,0x00,0x00,0x00,0x00,
 0x00,0x00,0x00,0x00,0x00,0x00,0x70,0x3c,0x0e,0x00,0x00,0x00,0x10,0x07,0x00,
 0x00,0x00,0x00,0x00,0x00,0x00,0x00,0x00,0x00,0x00,0xf8,0x01,0x30,0x1c,0x07,
 0x00,0x00,0x00,0x00,0x00,0x00,0xe3,0x00,0x00,0x00,0x00,0x00,0x00,0x00,0x00,
 0x00,0x00,0x00,0x00,0x00,0x00,0x00,0x00,0x00,0x00,0x00,0x00,0x00,0x00,0x00,
 0x00,0x70,0x7c,0x0f,0x00,0x00,0x00,0x10,0x07,0x00,0x00,0x00,0x00,0x00,0x00,
 0x00,0x00,0x00,0x00,0x00,0xcc,0x01,0x18,0x3f,0x07,0x00,0x00,0x00,0x00,0x00,
 0x00,0xe3,0x00,0x00,0x00,0x00,0x00,0x00,0x00,0x00,0x00,0x00,0x00,0x00,0x00,
 0x00,0x00,0x00,0x00,0x00,0x00,0x00,0x00,0x00,0x00,0x00,0x30,0x7e,0x0f,0x00,
 0x00,0x00,0xf0,0x07,0x00,0x00,0x00,0x00,0x00,0x00,0x00,0x00,0x00,0x00,0x00,
 0xe6,0x01,0x88,0xbf,0x07,0x00,0x00,0x00,0x00,0x00,0x00,0xf1,0x00,0x00,0x00,
 0x00,0x00,0x00,0x00,0x00,0x00,0x00,0x00,0x00,0x00,0x00,0x00,0x00,0x00,0x00,
 0x00,0x00,0x00,0x00,0x00,0x00,0x20,0xfe,0xff,0xff,0xfb,0xff,0xff,0xff,0x7f,
 0xfc,0xe3,0xff,0xe7,0xff,0xff,0xc1,0xbf,0xff,0x9f,0xe3,0x03,0x8c,0xbf,0xc7,
 0xff,0xfd,0xff,0xe0,0xff,0xf0,0xf1,0xf8,0x3f,0x00,0x00,0x00,0x00,0x00,0x00,
 0x00,0x00,0x00,0x00,0x00,0x00,0x00,0x00,0x00,0x00,0x00,0x00,0x00,0x00,0x00,
 0x00,0x20,0xde,0x17,0x8c,0x0f,0xe7,0x81,0x87,0x71,0x86,0x27,0x18,0x2f,0x18,
 0xc7,0x61,0xf8,0x60,0xbc,0x80,0x03,0xc4,0xe7,0x67,0xc4,0x05,0xe3,0x31,0xe2,
 0x18,0xf1,0x8c,0x38,0x00,0x00,0x00,0x00,0x00,0x00,0x00,0x00,0x00,0x00,0x00,
 0x00,0x00,0x00,0x00,0x00,0x00,0x00,0x00,0x00,0x00,0x00,0x30,0xee,0x37,0x04,
 0x1f,0xe6,0xc7,0x8f,0x70,0x33,0x6f,0x08,0x6e,0x0c,0xc3,0x31,0xf3,0x21,0xb8,
 0xf1,0x03,0xc6,0xe3,0x33,0xc2,0x0d,0xc1,0x19,0xe1,0xcc,0x70,0x46,0x38,0x00,
 0x00,0x00,0x00,0x00,0x00,0x00,0x00,0x00,0x00,0x00,0x00,0x00,0x00,0x00,0x00,
 0x00,0x00,0x00,0x00,0x00,0x00,0x10,0xe0,0x31,0x18,0x3f,0xe6,0xc7,0x8f,0xf0,
 0x39,0x6e,0x30,0x6e,0x14,0xc5,0x99,0xf3,0xc1,0xb8,0xf1,0x03,0xc2,0xe3,0x1b,
 0xe3,0x0d,0xc6,0x8d,0xf1,0xc6,0x78,0x63,0x3c,0x00,0x00,0x00,0x00,0x00,0x00,
 0x00,0x00,0x00,0x00,0x00,0x00,0x00,0x00,0x00,0x00,0x00,0x00,0x00,0x00,0x00,
 0x00,0x10,0xe7,0x31,0x8c,0x3f,0xee,0xc7,0x0f,0xff,0x38,0x6e,0x18,0x6f,0x18,
 0xc6,0x89,0xf3,0x61,0xbc,0xf1,0x03,0xe2,0x01,0x88,0xe3,0x0d,0xe3,0xc5,0xf1,
 0xe2,0x78,0x71,0x3c,0x00,0x00,0x00,0x00,0x00,0x00,0x00,0x00,0x00,0x00,0x00,
 0x00,0x00,0x00,0x00,0x00,0x00,0x00,0x00,0x00,0x00,0x00,0x18,0xf7,0x20,0x8e,
 0x37,0xf6,0xc2,0x8d,0xff,0x38,0x4e,0x1c,0x6f,0x1c,0xc7,0x8d,0x79,0x71,0xbc,
 0x71,0x00,0xe2,0x01,0x8c,0xe3,0x89,0xe3,0xc7,0xf1,0xe3,0xf8,0x71,0x3c,0x00,
 0x00,0x00,0x00,0x00,0x00,0x00,0x00,0x00,0x00,0x00,0x00,0x00,0x00,0x00,0x00,
 0x00,0x00,0x00,0x00,0x00,0x00,0x08,0xff,0x30,0x8e,0x27,0xfa,0xe2,0x85,0x7f,
 0x3c,0x6e,0x1c,0x2f,0x0c,0xe3,0xc5,0xfc,0x71,0xbc,0x78,0x00,0xe2,0x01,0x84,
 0xe3,0x8c,0xe3,0xc3,0x71,0x71,0xbc,0x70,0x1c,0x00,0x00,0x00,0x00,0x00,0x00,
 0x00,0x00,0x00,0x00,0x00,0x00,0x00,0x00,0x00,0x00,0x00,0x00,0x00,0x00,0x00,
 0x00,0x88,0xff,0x13,0xc6,0x23,0xfa,0xe2,0xc5,0x47,0x1c,0x2f,0x8c,0x27,0x8e,
 0xe3,0x07,0xff,0x30,0x9e,0x78,0x00,0xe2,0x00,0xc4,0xf3,0x84,0xf1,0xe2,0x79,
 0x71,0xfc,0x78,0x1e,0x00,0x00,0x00,0x00,0x00,0x00,0x00,0x00,0x00,0x00,0x00,
 0x00,0x00,0x00,0x00,0x00,0x00,0x00,0x00,0x00,0x00,0x00,0x88,0xbf,0x13,0xc7,
 0x27,0x7c,0xe3,0xc7,0x43,0x1c,0x2f,0x8e,0x2f,0x8e,0xa3,0xc7,0xbf,0x38,0xbe,
 0xf8,0x00,0xe6,0xf9,0xc5,0xf1,0xc5,0xf1,0xe3,0xf8,0x71,0xf4,0x38,0x3e,0x00,
 0x00,0x00,0x00,0x00,0x00,0x00,0x00,0x00,0x00,0x00,0x00,0x00,0x00,0x00,0x00,
 0x00,0x00,0x00,0x00,0x00,0x00,0x8c,0x9f,0x13,0x47,0x27,0x3e,0xa1,0xc7,0x43,
 0x9c,0x2f,0x8e,0x3e,0x8e,0xa3,0xc7,0xbb,0x38,0xfa,0xe8,0x00,0xc6,0xcf,0xc5,
 0xd1,0xc5,0xd1,0xe3,0xe8,0x11,0xf4,0x38,0x3a,0x00,0x00,0x00,0x00,0x00,0x00,
 0x00,0x00,0x00,0x00,0x00,0x00,0x00,0x00,0x00,0x00,0x00,0x00,0x00,0x00,0x00,
 0x00,0x86,0xc7,0x1b,0x87,0x27,0x3f,0xc1,0xe3,0xc1,0xcc,0x37,0x0e,0x1f,0xc7,
 0xc1,0xcf,0xfd,0x38,0x7c,0xf0,0x00,0x8e,0xf7,0x45,0xe0,0xc7,0xe1,0x23,0xf0,
 0x01,0xf8,0x08,0x3c,0x00,0x00,0x00,0x00,0x00,0x00,0x00,0x00,0x00,0x00,0x00,
 0x00,0x00,0x00,0x00,0x00,0x00,0x00,0x00,0x00,0x00,0x00,0x02,0xc0,0x8b,0xc7,
 0xa7,0x1f,0xe3,0xe3,0xc1,0xe1,0x17,0x8f,0x1f,0xc7,0xe3,0x1f,0x7e,0x3c,0xfe,
 0xf8,0x00,0x3c,0xf8,0x8d,0xf1,0xe3,0xf1,0xc7,0xf8,0x63,0xfc,0x31,0x3e,0x00,
 0x00,0x00,0x00,0x00,0x00,0x00,0x00,0x00,0x00,0x00,0x00,0x00,0x00,0x00,0x00,
 0x00,0x00,0x00,0x00,0x00,0x00,0xfe,0xff,0xfb,0xff,0xe7,0x0f,0xff,0xff,0xc1,
 0xff,0xf3,0xff,0xff,0xff,0xff,0xff,0xff,0xff,0xff,0xff,0x00,0xfc,0xff,0xfd,
 0xff,0xff,0xff,0xff,0xff,0xff,0xff,0xff,0x3f,0x00,0x00,0x00,0x00,0x00,0x00,
 0x00,0x00,0x00,0x00,0x00,0x00,0x00,0x00,0x00,0x00,0x00,0x00,0x00,0x00,0x00,
 0x00,0xfe,0xff,0xf9,0xff,0xe3,0x07,0xff,0xff,0x80,0xff,0xf1,0xff,0xf7,0xff,
 0xff,0xf9,0xdf,0xff,0xdf,0x7f,0x00,0xf8,0x7f,0xfc,0xff,0xfe,0xff,0xfe,0x7f,
 0xff,0xbf,0xff,0x1f,0x00,0x00,0x00,0x00,0x00,0x00,0x00,0x00,0x00,0x00,0x00,
 0x00,0x00,0x00,0x00,0x00,0x00,0x00,0x00,0x00,0x00,0x00,0xfe,0xff,0xf9,0xff,
 0xe1,0x03,0xfe,0xfe,0x00,0xff,0xf0,0xff,0xf3,0xff,0xff,0xf0,0xcf,0xff,0x8f,
 0x3f,0x00,0xe0,0x3f,0xf8,0x7f,0xfe,0x7f,0xfc,0x3f,0xfe,0x1f,0xff,0x0f,0x00,
 0x00,0x00,0x00,0x00,0x00,0x00,0x00,0x00,0x00,0x00,0x00,0x00,0x00,0x00,0x00,
 0x00,0x00,0x00,0x00,0x00,0x00,0x00,0x00,0x00,0x00,0x00,0x00,0x00,0x00,0x00,
 0x00,0x00,0x00,0x00,0x00,0x00,0x00,0x00,0x00,0x00,0x00,0x00,0x00,0x00,0x00,
 0x00,0x00,0x00,0x00,0x00,0x00,0x00,0x00,0x00,0x00,0x00,0x00,0x00,0x00,0x00,
 0x00,0x00,0x00,0x00,0x00,0x00,0x00,0x00,0x00,0x00,0x00,0x00,0x00,0x00,0x00,
 0x00,0x00,0x00,0x00,0x00,0x00,0x00,0x00,0x00,0x00,0x00,0x00,0x00,0x00,0x00,
 0x00,0x00,0x00,0x00,0x00,0x00,0x00,0x00,0x00,0x00,0x00,0x00,0x00,0x00,0x00,
 0x00,0x00,0x00,0x00,0x00,0x00,0x00,0x00,0x00,0x00,0x00,0x00,0x00,0x00,0x00,
 0x00,0x00,0x00,0x00,0x00,0x00,0x00,0x00,0x00,0x00,0x00,0x00,0x00,0x00,0x00,
 0x00,0x00,0x00,0x00,0x00,0x00,0x00,0x00,0x00,0x00,0x00,0x00,0x00,0x00,0x00,
 0x00,0x00,0x00,0x00,0x00,0x00,0x00,0x00,0x00,0x00,0x00,0x00,0x00,0x00,0x00,
 0x00,0x00,0x00,0x00,0x00,0x00,0x00,0x00,0x00,0x00,0x00,0x00,0x00,0x00,0x00,
 0x00,0x00,0x00,0x00,0x00,0x00,0x00,0x00,0x00,0x00,0x00,0x00,0x00,0x00,0x00,
 0x00,0x00,0x00,0x00,0x00,0x00,0x00,0x00,0x00,0x00,0x00,0x00,0x00,0x00,0x00,
 0x00,0x00,0x00,0x00,0x00,0x00,0x00,0x00,0x00,0x00,0x00,0x00,0x00,0x00,0x00,
 0x00,0x00,0x00,0x00,0x00,0x00,0x00,0x00,0x00,0x00,0x00,0x00,0x00,0x00,0x00,
 0x00,0x00,0x00,0x00,0x00,0x00,0x00,0x00,0x00,0x00,0x00,0x00,0x00,0x00,0x00,
 0x00,0x00,0x00,0x00,0x00,0x00,0x00,0x00,0x00,0x00,0x00,0x00,0x00,0x00,0x00,
 0x00,0x00,0x00,0x00,0x00,0x00,0x00,0x00,0x00,0x00,0x00,0x00,0x00,0x00,0x00,
 0x00,0x00,0x00,0x00,0x00,0x00,0x00,0x00,0x00,0x00,0x00,0x00,0x00,0x00,0x00,
 0x00,0x00,0x00,0x00,0x00,0x00,0x00,0x00,0x00,0x00,0x00,0x00,0x00,0x00,0x00,
 0x00,0x00,0x00,0x00,0x00,0x00,0x00,0x00,0x00,0x00,0x00,0x00,0x00,0x00,0x00};
