#define service_f_width 497
#define service_f_height 30
static char service_f_bits[] = {
 0x00,0x00,0x00,0x00,0x00,0x00,0x00,0x00,0x00,0x00,0x00,0x00,0x00,0x00,0x00,
 0x00,0x00,0x00,0x00,0x00,0x00,0x00,0x00,0x00,0x00,0x00,0x00,0x00,0x00,0x00,
 0x00,0x00,0x00,0x00,0x00,0x00,0x00,0x00,0x00,0x00,0x00,0x00,0x00,0x00,0x00,
 0x00,0x00,0x00,0x00,0x00,0x00,0x00,0x00,0x00,0x00,0x00,0x00,0x00,0x00,0x00,
 0x00,0x00,0x00,0x00,0x00,0x00,0x00,0x00,0x00,0x00,0x00,0x00,0x00,0x00,0x00,
 0x00,0x00,0x00,0x00,0x00,0x00,0x00,0x00,0x00,0x00,0x00,0x00,0x00,0x00,0x00,
 0x00,0x00,0x00,0x00,0x00,0x00,0x00,0x00,0x00,0x00,0x00,0x00,0x00,0x00,0x00,
 0x00,0x00,0x00,0x00,0x00,0x00,0x00,0x00,0x00,0x00,0x00,0x00,0x00,0x00,0x00,
 0x00,0x00,0x00,0x00,0x00,0x00,0x00,0x00,0x00,0x00,0x00,0x00,0x00,0x00,0x00,
 0x00,0x00,0x00,0x00,0x00,0x00,0x00,0x00,0x00,0x00,0x00,0x00,0x00,0x00,0x00,
 0x00,0x00,0x00,0x00,0x00,0x00,0x00,0x00,0x00,0x00,0x00,0x00,0x00,0x00,0x00,
 0x00,0x00,0x00,0x00,0x00,0x00,0x00,0x00,0x00,0x00,0x00,0x00,0x00,0x00,0x00,
 0x00,0x00,0x00,0x00,0x00,0x00,0x00,0x00,0x00,0x00,0x00,0x00,0x00,0x00,0x00,
 0x00,0x00,0x00,0x00,0x00,0x00,0x00,0x00,0x00,0x00,0x00,0x00,0x00,0x00,0x00,
 0x00,0x00,0x00,0x00,0x00,0x00,0x00,0x00,0x00,0x00,0x00,0x00,0x00,0x00,0x00,
 0x00,0x00,0x00,0x00,0x00,0x00,0x00,0x00,0x00,0x00,0x00,0x00,0x00,0x00,0x00,
 0x00,0x00,0x00,0x00,0x00,0x00,0x00,0x00,0x00,0x00,0x00,0x00,0x00,0x00,0x00,
 0x00,0x00,0x00,0x00,0x00,0x00,0x00,0x00,0x00,0x00,0x00,0x00,0x00,0x00,0x00,
 0x00,0x00,0x00,0x00,0x00,0x00,0x00,0x00,0x00,0x00,0x00,0x00,0x00,0x00,0x00,
 0x00,0x00,0x00,0x00,0x00,0x00,0x00,0x00,0x00,0x00,0x00,0x00,0x00,0x00,0x00,
 0x00,0x00,0x00,0x00,0x00,0x00,0x00,0x00,0x00,0x00,0x00,0x00,0x00,0x00,0x00,
 0x00,0x00,0x00,0x00,0x00,0x00,0x00,0x00,0x00,0x00,0x00,0x00,0x00,0x00,0x00,
 0x00,0x00,0x00,0x00,0x00,0x00,0x00,0x00,0x00,0x00,0x00,0x00,0x00,0x00,0x00,
 0x00,0x00,0x00,0x00,0x00,0x00,0x00,0x00,0x00,0x00,0x00,0x00,0x00,0x00,0x00,
 0x00,0x00,0x00,0x00,0x00,0x00,0x00,0x00,0x00,0x00,0x00,0x00,0x00,0x00,0x00,
 0x00,0x00,0x00,0x00,0x5e,0x00,0x00,0x00,0x06,0x00,0x00,0xc0,0x01,0xc0,0x33,
 0x00,0x00,0x00,0x0c,0x00,0x00,0x00,0x00,0x00,0x00,0x00,0x00,0x00,0x00,0x00,
 0x00,0x00,0x00,0x00,0x00,0x78,0x00,0x0c,0x30,0x00,0x00,0x00,0x00,0x00,0xff,
 0x03,0x00,0x60,0x00,0x00,0x00,0x00,0x00,0x00,0x00,0x00,0x00,0x00,0xc0,0x0b,
 0x00,0x00,0x00,0xe0,0x00,0x00,0x00,0x63,0x00,0x00,0x00,0x06,0x00,0x00,0x80,
 0x01,0x80,0x31,0x00,0x00,0x00,0x0c,0x00,0x00,0x00,0x00,0x00,0x00,0x00,0x00,
 0x00,0x00,0x00,0x00,0x00,0x00,0x00,0x00,0x70,0x00,0x06,0x30,0x00,0x00,0x00,
 0x00,0x00,0x0c,0x03,0x00,0x60,0x00,0x00,0x00,0x00,0x00,0x00,0x00,0x00,0x00,
 0x00,0x30,0x0c,0x00,0x00,0x00,0xc0,0x00,0x00,0x00,0x23,0x00,0x00,0x00,0x00,
 0x00,0x00,0xc0,0x00,0x80,0x31,0x00,0x00,0x00,0x00,0x00,0x00,0x00,0x00,0x00,
 0x00,0x00,0x00,0x00,0x01,0x00,0x04,0x00,0x00,0x00,0x00,0x30,0x00,0x03,0x00,
 0x00,0x00,0x00,0x00,0x00,0x06,0x01,0x00,0x00,0x00,0x00,0x00,0x00,0x00,0x00,
 0x00,0x00,0x00,0x08,0x18,0x04,0x00,0x00,0x00,0x60,0x00,0x00,0x00,0x03,0x00,
 0x00,0x00,0x00,0x00,0x00,0xc0,0x00,0x80,0x31,0x00,0x00,0x00,0x00,0x00,0x00,
 0x00,0x00,0x00,0x00,0x00,0x00,0x80,0x01,0x00,0x06,0x00,0x00,0x00,0x00,0x30,
 0x00,0x00,0x00,0x00,0x00,0x00,0x00,0x00,0x46,0x00,0x00,0x00,0x00,0x00,0x00,
 0x00,0x00,0x00,0x00,0x00,0x00,0x0c,0x0c,0x04,0x00,0x00,0x00,0x60,0x00,0x00,
 0x00,0x07,0x78,0xef,0xb3,0x83,0x83,0x07,0xf8,0xf0,0x80,0x31,0xbc,0x77,0x67,
 0xe7,0x8d,0xe7,0xdd,0x3b,0x3c,0x77,0x83,0xf7,0xee,0x03,0xb6,0xef,0x6e,0xf0,
 0xf0,0xee,0xb0,0xc3,0x7b,0x1f,0x6c,0xc7,0xf0,0x00,0x00,0x66,0xbc,0x3b,0x3b,
 0x6f,0x3c,0xef,0xde,0xe1,0xb9,0x1b,0xbc,0x77,0x1f,0x0c,0x80,0xed,0x1d,0x36,
 0x7c,0xd8,0x00,0x00,0x0e,0x6c,0x7c,0x33,0xc3,0xc6,0x06,0xcc,0xd8,0xc0,0x00,
 0x36,0x6b,0x66,0x86,0xcf,0xcc,0x9a,0x35,0x36,0xee,0xc7,0x66,0xcd,0x00,0x3b,
 0xc3,0xfd,0x98,0x99,0x9c,0x59,0x63,0xe3,0x1b,0x76,0xc6,0xd8,0x00,0x00,0x7e,
 0x58,0x33,0x33,0x7c,0x66,0xd6,0xac,0xb1,0x71,0x3f,0x36,0x6b,0x06,0x06,0xc0,
 0xce,0x1a,0x3b,0x66,0xec,0x00,0x00,0x1c,0x66,0x0e,0x23,0x63,0x66,0x06,0x66,
 0xcc,0xc0,0x00,0x33,0x67,0x46,0xc6,0x61,0xcc,0x99,0x33,0x33,0x77,0x63,0xe6,
 0xcc,0x80,0x19,0xe3,0x6e,0x8c,0x99,0x8c,0x39,0x33,0x73,0x18,0x33,0xc6,0xcc,
 0x00,0x00,0x23,0x38,0x33,0x32,0x0e,0x63,0xce,0x9c,0x99,0xb9,0x1b,0x33,0x67,
 0x06,0x06,0x60,0xc6,0x99,0x19,0x33,0x66,0x00,0x00,0x38,0x33,0x06,0x13,0x33,
 0x30,0x03,0x66,0x66,0xc0,0x80,0x19,0x63,0x26,0xc6,0x60,0xcc,0x98,0xb1,0x19,
 0x33,0x33,0x63,0xcc,0x80,0x19,0x63,0x66,0x8c,0x39,0x8c,0x19,0x9b,0x31,0x18,
 0x33,0xe6,0x66,0xc0,0x03,0x23,0x18,0x33,0x31,0x06,0x63,0xc6,0x8c,0xcd,0x98,
 0x99,0x19,0x63,0x06,0x06,0x60,0xc6,0x98,0x19,0x33,0x66,0x00,0x80,0x30,0x0f,
 0x06,0x8b,0x31,0xf0,0x00,0x63,0x1e,0xc0,0x80,0x87,0x33,0x16,0xc3,0x30,0xe6,
 0xcc,0x99,0x07,0x33,0xf3,0x70,0x66,0xc0,0x98,0x61,0x66,0xc6,0x70,0xc6,0x98,
 0x79,0x30,0x8c,0x31,0x63,0x1e,0xc0,0x03,0x03,0x9c,0xb1,0x18,0x86,0x31,0x67,
 0xce,0x3c,0x98,0x99,0x87,0x33,0x03,0x06,0x30,0xe6,0xcc,0x98,0x31,0x63,0x00,
 0x80,0x30,0x03,0x06,0x87,0x35,0x32,0x00,0xf3,0x06,0x60,0x80,0x81,0x31,0x0e,
 0xcb,0x30,0x66,0xcc,0x98,0x01,0xb3,0x33,0x30,0x66,0xc0,0x9c,0x61,0x76,0xc6,
 0x64,0xc6,0x8c,0x19,0x30,0xac,0x39,0x73,0x06,0x00,0x00,0x03,0x8d,0x71,0x58,
 0x86,0x31,0x63,0xc6,0x0c,0x98,0x9d,0x81,0x31,0x03,0x06,0x32,0x67,0xcc,0x9c,
 0x79,0x73,0x00,0xc0,0x19,0x23,0x03,0x83,0x35,0x32,0x02,0xb3,0x46,0x60,0x81,
 0x91,0x71,0x06,0x6b,0x30,0x63,0xdc,0xb8,0x91,0x99,0x35,0x32,0x6e,0xc1,0xac,
 0x35,0xb3,0x66,0x64,0x66,0x8c,0x1b,0x19,0xac,0x19,0x6b,0x47,0x00,0x80,0xc1,
 0x8d,0x33,0x58,0x83,0x19,0xe3,0xc6,0x8d,0xcc,0xac,0x91,0x71,0x0b,0x8c,0x31,
 0x6b,0xdc,0xac,0x59,0xb3,0x00,0x40,0x0f,0x1e,0x03,0x81,0xe3,0xe1,0x01,0x7e,
 0x3c,0xe0,0x00,0x8f,0x31,0x02,0x67,0xe0,0x61,0xcc,0x18,0x8f,0x99,0xe3,0x31,
 0xe6,0x80,0x9b,0x33,0x73,0x3c,0x3c,0x3e,0x8c,0xf1,0x18,0x1c,0x1f,0xe7,0x3c,
 0x00,0xc0,0xff,0x8c,0x11,0x38,0x03,0x0f,0x63,0xc6,0x78,0xcc,0x1c,0x8f,0x31,
 0x07,0x78,0xe0,0x66,0x8c,0x1b,0x3f,0x6e,0x00,0x00,0x00,0x00,0x00,0x00,0x00,
 0x00,0x00,0x00,0x00,0x00,0x00,0x00,0x00,0x00,0x00,0x00,0x00,0x00,0x00,0x00,
 0x00,0x00,0x00,0x00,0x00,0x00,0x00,0x00,0x00,0x00,0x03,0x00,0x00,0x00,0x00,
 0x18,0x00,0x00,0x00,0x00,0x00,0x00,0x00,0x00,0x00,0x00,0x00,0x00,0x00,0x00,
 0x00,0x00,0x00,0x00,0x00,0x00,0x00,0x00,0x00,0x00,0x00,0x00,0x00,0x00,0x00,
 0x00,0x00,0x00,0x00,0x00,0x00,0x00,0x00,0x00,0x00,0x00,0x00,0x00,0x00,0x00,
 0x00,0x00,0x00,0x00,0x00,0x00,0x00,0x00,0x00,0x00,0x00,0x00,0x00,0x03,0x00,
 0x00,0x00,0x00,0x18,0x00,0x00,0x00,0x00,0x00,0x00,0x00,0x00,0x00,0x00,0x00,
 0x00,0x00,0x00,0x00,0x00,0x00,0x00,0x00,0x00,0x00,0x00,0x00,0x00,0x00,0x00,
 0x00,0x00,0x00,0x00,0x00,0x00,0x00,0x00,0x00,0x00,0x00,0x00,0x00,0x00,0x00,
 0x00,0x00,0x00,0x00,0x00,0x00,0x00,0x00,0x00,0x00,0x00,0x00,0x00,0x00,0x00,
 0x00,0x03,0x00,0x00,0x00,0x00,0x0c,0x00,0x00,0x00,0x00,0x00,0x00,0x00,0x00,
 0x00,0x00,0x00,0x00,0x00,0x00,0x00,0x00,0x00,0x00,0x00,0x00,0x00,0x00,0x00,
 0x00,0x00,0x00,0x00,0x00,0x00,0x00,0x00,0x00,0x00,0x00,0x00,0x00,0x00,0x00,
 0x00,0x00,0x00,0x00,0x00,0x00,0x00,0x00,0x00,0x00,0x00,0x00,0x00,0x00,0x00,
 0x00,0x00,0x00,0x80,0x07,0x00,0x00,0x00,0x00,0x1e,0x00,0x00,0x00,0x00,0x00,
 0x00,0x00,0x00,0x00,0x00,0x00,0x00,0x00,0x00,0x00,0x00,0x00,0x00,0x00,0x00,
 0x00,0x00,0x00,0x00,0x00,0x00,0x00,0x00,0x00,0x00,0x00,0x00,0x00,0x00,0x00,
 0x00,0x00,0x00,0x00,0x00,0x00,0x00,0x00,0x00,0x00,0x00,0x00,0x00,0x00,0x00,
 0x00,0x00,0x00,0x00,0x00,0x00,0x00,0x00,0x00,0x00,0x00,0x00,0x00,0x00,0x00,
 0x00,0x00,0x00,0x00,0x00,0x00,0x00,0x00,0x00,0x00,0x00,0x00,0x00,0x00,0x00,
 0x00,0x00,0x00,0x00,0x00,0x00,0x00,0x00,0x00,0x00,0x00,0x00,0x00,0x00,0x00,
 0x00,0x00,0x00,0x00,0x00,0x00,0x00,0x00,0x00,0x00,0x00,0x00,0x00,0x00,0x00,
 0x00,0x00,0x00,0x00,0x00,0x00,0x00,0x00,0x00,0x00,0x00,0x00,0x00,0x00,0x00,
 0x00,0x00,0x00,0x00,0x00,0x00,0x00,0x00,0x00,0x00,0x00,0x00,0x00,0x00,0x00,
 0x00,0x00,0x00,0x00,0x00,0x00,0x00,0x00,0x00,0x00,0x00,0x00,0x00,0x00,0x00,
 0x00,0x00,0x00,0x00,0x00,0x00,0x00,0x00,0x00,0x00,0x00,0x00,0x00,0x00,0x00,
 0x00,0x00,0x00,0x00,0x00,0x00,0x00,0x00,0x00,0x00,0x00,0x00,0x00,0x00,0x00,
 0x00,0x00,0x00,0x00,0x00,0x00,0x00,0x00,0x00,0x00,0x00,0x00,0x00,0x00,0x00,
 0x00,0x00,0x00,0x00,0x00,0x00,0x00,0x00,0x00,0x00,0x00,0x00,0x00,0x00,0x00,
 0x00,0x00,0x00,0x00,0x00,0x00,0x00,0x00,0x00,0x00,0x00,0x00,0x00,0x00,0x00,
 0x00,0x00,0x00,0x00,0x00,0x00,0x00,0x00,0x00,0x00,0x00,0x00,0x00,0x00,0x00,
 0x00,0x00,0x00,0x00,0x00,0x00,0x00,0x00,0x00,0x00,0x00,0x00,0x00,0x00,0x00,
 0x00,0x00,0x00,0x00,0x00,0x00,0x00,0x00,0x00,0x00,0x00,0x00,0x00,0x00,0x00,
 0x00,0x00,0x00,0x00,0x00,0x00,0x00,0x00,0x00,0x00,0x00,0x00,0x00,0x00,0x00,
 0x00,0x00,0x00,0x00,0x00,0x00,0x00,0x00,0x00,0x00,0x00,0x00,0x00,0x00,0x00,
 0x00,0x00,0x00,0x00,0x00,0x00,0x00,0x00,0x00,0x00,0x00,0x00,0x00,0x00,0x00,
 0x00,0x00,0x00,0x00,0x00,0x00,0x00,0x00,0x00,0x00,0x00,0x00,0x00,0x00,0x00,
 0x00,0x00,0x00,0x00,0x00,0x00,0x00,0x00,0x00,0x00,0x00,0x00,0x00,0x00,0x00,
 0x00,0x00,0x00,0x00,0x00,0x00,0x00,0x00,0x00,0x00,0x00,0x00,0x00,0x00,0x00,
 0x00,0x00,0x00,0x00,0x00,0x00,0x00,0x00,0x00,0x00,0x00,0x00,0x00,0x00,0x00,
 0x00,0x00,0x00,0x00,0x00,0x00,0x00,0x00,0x00,0x00,0x00,0x00,0x00,0x00,0x00,
 0x00,0x00,0x00,0x00,0x00,0x00,0x00,0x00,0x00,0x00,0x00,0x00,0x00,0x00,0x00,
 0x00,0x00,0x00,0x00,0x00,0x00,0x00,0x00,0x00,0x00,0x00,0x00,0x00,0x00,0x00,
 0x00,0x00,0x00,0x00,0x00,0x00,0x00,0x00,0x00,0x00,0x00,0x00,0x00,0x00,0x00,
 0x00,0x00,0x00,0x00,0x00,0x00,0x00,0x00,0x00,0x00,0x00,0x00,0x00,0x00,0x00,
 0x00,0x00,0x00,0x00,0x00,0x00,0x00,0x00,0x00,0x00,0x00,0x00,0x00,0x00,0x00,
 0x00,0x00,0x00,0x00,0x00,0x00,0x00,0x00,0x00,0x00,0x00,0x00,0x00,0x00,0x00,
 0x00,0x00,0x00,0x00,0x00,0x00,0x00,0x00,0x00,0x00,0x00,0x00,0x00,0x00,0x00,
 0x00,0x00,0x00,0x00,0x00,0x00,0x00,0x00,0x00,0x00,0x00,0x00,0x00,0x00,0x00,
 0x00,0x00,0x00,0x00,0x00,0x00,0x00,0x00,0x00,0x00,0x00,0x00,0x00,0x00,0x00};
